<svg xmlns="http://www.w3.org/2000/svg" xmlns:xlink="http://www.w3.org/1999/xlink" xmlns:lucid="lucid" width="759" height="639"><g transform="translate(499 246)" lucid:page-tab-id="0_0"><path d="M-500-500H500V500H-500z" fill="#21252c"/><path d="M-397.17-77.08a6 6 0 0 1 6-6h151.25a6 6 0 0 1 6 6v49a6 6 0 0 1-6 6h-151.25a6 6 0 0 1-6-6z" stroke="#a9a9a9" stroke-width="2" fill="#f5fbff"/><use xlink:href="#a" transform="matrix(1,0,0,1,-385.1689928059335,-71.07785061542737) translate(8.308333333333323 22.225)"/><path d="M-436.32 187.85a6 6 0 0 1 6-6h148.6a6 6 0 0 1 6 6v49a6 6 0 0 1-6 6h-148.6a6 6 0 0 1-6-6z" stroke="#a9a9a9" stroke-width="2" fill="#f5fbff"/><use xlink:href="#b" transform="matrix(1,0,0,1,-424.3246142396533,193.8547251714448) translate(9.497222222222227 22.225)"/><use xlink:href="#c" transform="matrix(1,0,0,1,-424.3246142396533,193.8547251714448) translate(72.99166666666667 22.225)"/><path d="M-276.68 314.67a6 6 0 0 1 6-6h126.04a6 6 0 0 1 6 6v49a6 6 0 0 1-6 6h-126.04a6 6 0 0 1-6-6z" stroke="#a9a9a9" stroke-width="2" fill="#f5fbff"/><use xlink:href="#d" transform="matrix(1,0,0,1,-264.6833775439985,320.6699182095433) translate(6.838888888888889 22.225)"/><path d="M-77.78 34.6a6 6 0 0 1 6-6H52.86a6 6 0 0 1 6 6v49a6 6 0 0 1-6 6H-71.78a6 6 0 0 1-6-6z" stroke="#a9a9a9" stroke-width="2" fill="#f5fbff"/><use xlink:href="#e" transform="matrix(1,0,0,1,-65.77651584834376,40.6022896665537) translate(8.252777777777766 22.225)"/><path d="M-271.86 34.6a6 6 0 0 1 6-6h111.3a6 6 0 0 1 6 6v49a6 6 0 0 1-6 6h-111.3a6 6 0 0 1-6-6z" stroke="#a9a9a9" stroke-width="2" fill="#f5fbff"/><use xlink:href="#f" transform="matrix(1,0,0,1,-259.8552525439985,40.60228966655367) translate(5.419444444444437 22.225)"/><path d="M-154.12-211.3a6 6 0 0 1 6-6h94.53a6 6 0 0 1 6 6v49a6 6 0 0 1-6 6h-94.52a6 6 0 0 1-6-6z" stroke="#a9a9a9" stroke-width="2" fill="#f5fbff"/><use xlink:href="#g" transform="matrix(1,0,0,1,-142.1174492409761,-205.3079637185839) translate(-1.2777777777777715 22.9)"/><path d="M120.7 187.85a6 6 0 0 1 6-6h100.94a6 6 0 0 1 6 6v49a6 6 0 0 1-6 6H126.7a6 6 0 0 1-6-6z" stroke="#a9a9a9" stroke-width="2" fill="#f5fbff"/><use xlink:href="#h" transform="matrix(1,0,0,1,132.70227604232036,193.8547251714448) translate(7.863888888888894 22.225)"/><path d="M129.65 34.6a6 6 0 0 1 6-6h97.95a6 6 0 0 1 6 6v49a6 6 0 0 1-6 6h-97.95a6 6 0 0 1-6-6z" stroke="#a9a9a9" stroke-width="2" fill="#f5fbff"/><use xlink:href="#i" transform="matrix(1,0,0,1,141.645970847311,40.6022896665537) translate(6.394444444444446 22.225)"/><path d="M-47.6 187.85a6 6 0 0 1 6-6h84.64a6 6 0 0 1 6 6v49a6 6 0 0 1-6 6H-41.6a6 6 0 0 1-6-6z" stroke="#a9a9a9" stroke-width="2" fill="#f5fbff"/><use xlink:href="#j" transform="matrix(1,0,0,1,-35.58793738500418,193.8547251714448) translate(6.555555555555557 22.225)"/><path d="M-436.32 34.6a6 6 0 0 1 6-6h81.68a6 6 0 0 1 6 6v49a6 6 0 0 1-6 6h-81.69a6 6 0 0 1-6-6z" stroke="#a9a9a9" stroke-width="2" fill="#f5fbff"/><use xlink:href="#k" transform="matrix(1,0,0,1,-424.3246142396533,40.60228966655367) translate(6.308333333333337 22.225)"/><path d="M-204.07 187.85a6 6 0 0 1 6-6h72.82a6 6 0 0 1 6 6v49a6 6 0 0 1-6 6h-72.82a6 6 0 0 1-6-6z" stroke="#a9a9a9" stroke-width="2" fill="#f5fbff"/><use xlink:href="#l" transform="matrix(1,0,0,1,-192.06565081232873,193.8547251714448) translate(6.758333333333336 22.225)"/><path d="M-154.12-106.04a6 6 0 0 1 6-6h89.44a6 6 0 0 1 6 6v49a6 6 0 0 1-6 6h-89.44a6 6 0 0 1-6-6z" stroke="#a9a9a9" stroke-width="2" fill="#f5fbff"/><use xlink:href="#m" transform="matrix(1,0,0,1,-142.1174492409761,-100.04276931197887) translate(21.369444444444447 22.225)"/><path d="M-129.67-17.16l-.08 1.1-.28 1.16-.45 1.1-.62 1-.76.9-.9.75-1 .62-1.1.45-1.13.27-1.1.08h-246.32l-.76.06-.7.16-.64.27-.6.37-.54.46-.46.54-.37.6-.26.65-.16.68-.06.76V6.98h-3V-5.28l.1-1.1.26-1.16.45-1.1.62-1 .76-.9.9-.75 1-.6 1.1-.46 1.15-.27 1.1-.1h246.32l.77-.05.68-.17.65-.27.6-.36.54-.46.47-.54.37-.6.27-.65.17-.7.06-.75v-31.26h3z" stroke="#bdf139" stroke-width=".05" fill="#bdf139"/><path d="M-129.67-48.5h-3v-1.54h3z" fill="#bdf139"/><path d="M-129.64-48.48h-3.05v-1.6h3.06zm-3-1.54v1.5h2.95v-1.5z" stroke="#bdf139" stroke-width=".05" fill="#bdf139"/><path d="M-389.48 22.75l-4.64-14.27h9.27z" fill="#bdf139"/><path d="M-389.48 27.6l-6.7-20.62h13.4zm-2.57-17.62l2.57 7.9 2.57-7.9z" stroke="#bdf139" stroke-width=".05" fill="#bdf139"/><use xlink:href="#n" transform="matrix(1,0,0,1,-260.32380128852566,-22.02022429918523) translate(0 14.4)"/><path d="M-112.26-10.7l-.1 1.13-.27 1.14-.45 1.1-.6 1-.78.9-.9.76-1 .6-1.08.46-1.15.27-1.1.1h-84.45l-.76.05-.7.16-.65.27-.6.37-.54.46-.44.53-.37.6-.28.67-.17.68-.06.76V7h-3V1.2l.08-1.12.28-1.14.45-1.1.62-1 .77-.9.88-.76 1-.6 1.1-.46 1.14-.28 1.1-.08h84.46l.76-.06.7-.17.64-.27.6-.37.53-.47.47-.53.37-.6.27-.66.18-.68.06-.76v-37.74h3z" stroke="#bdf139" stroke-width=".05" fill="#bdf139"/><path d="M-112.26-48.5h-3v-1.54h3z" fill="#bdf139"/><path d="M-112.24-48.48h-3.05v-1.6h3.06zm-3-1.54v1.5h2.95v-1.5z" stroke="#bdf139" stroke-width=".05" fill="#bdf139"/><path d="M-210.2 22.75l-4.64-14.27h9.27z" fill="#bdf139"/><path d="M-210.2 27.6l-6.7-20.62h13.4zm-2.58-17.62l2.57 7.9 2.56-7.9z" stroke="#bdf139" stroke-width=".05" fill="#bdf139"/><use xlink:href="#n" transform="matrix(1,0,0,1,-155.50935987735141,-15.544000149198542) translate(0 14.4)"/><path d="M-71.66-17.28l.06.76.17.7.27.64.36.6.46.54.54.46.6.37.65.25.7.17.75.06h245.78l1.12.1 1.14.26 1.1.45 1 .6.9.77.75.9.6 1 .46 1.1.28 1.14.08 1.12V6.98h-3V-5.16l-.06-.76-.16-.7-.27-.64-.37-.6-.46-.54-.54-.46-.6-.37-.65-.27-.67-.16-.77-.06H-67.22l-1.1-.1-1.16-.26-1.1-.45-1-.62-.9-.76-.75-.9-.62-1-.45-1.1-.27-1.15-.1-1.1v-31.4h3z" stroke="#bdf139" stroke-width=".05" fill="#bdf139"/><path d="M-71.66-48.5h-3v-1.54h3z" fill="#bdf139"/><path d="M-71.63-48.48h-3.05v-1.6h3.05zm-3-1.54v1.5h2.95v-1.5z" stroke="#bdf139" stroke-width=".05" fill="#bdf139"/><path d="M184.62 22.75L180 8.48h9.26z" fill="#bdf139"/><path d="M184.62 27.6l-6.7-20.62h13.4zm-2.57-17.62l2.57 7.9 2.57-7.9z" stroke="#bdf139" stroke-width=".05" fill="#bdf139"/><use xlink:href="#n" transform="matrix(1,0,0,1,55.73182710711653,-22.020256729086697) translate(0 14.4)"/><path d="M-85.6-10.8l.06.76.16.68.27.66.36.6.46.53.54.46.6.36.65.27.7.17.76.06h65.64l1.12.08 1.14.28 1.1.45 1 .6.9.78.76.9.6 1 .46 1.1.28 1.13.08 1.12v5.78h-3V1.3l-.06-.75-.16-.68-.27-.66-.37-.6-.46-.52-.53-.46-.6-.37-.67-.27-.68-.16-.77-.06h-65.64l-1.12-.1-1.14-.27-1.1-.46-1-.6-.9-.78-.75-.9-.62-1-.44-1.1-.27-1.13-.1-1.12v-37.84h3z" stroke="#bdf139" stroke-width=".05" fill="#bdf139"/><path d="M-85.6-48.5h-3v-1.54h3z" fill="#bdf139"/><path d="M-85.58-48.48h-3.05v-1.6h3.05zm-3-1.54v1.5h2.95v-1.5z" stroke="#bdf139" stroke-width=".05" fill="#bdf139"/><path d="M-9.46 22.75L-14.1 8.48h9.28z" fill="#bdf139"/><path d="M-9.46 27.6l-6.7-20.62h13.4zm-2.57-17.62l2.57 7.9 2.58-7.9z" stroke="#bdf139" stroke-width=".05" fill="#bdf139"/><use xlink:href="#n" transform="matrix(1,0,0,1,-54.755040734468714,-15.544000149198542) translate(0 14.4)"/><path d="M-156.62-101.2h-31.34l-.76.05-.7.17-.64.27-.6.35-.54.46-.46.55-.36.6-.27.65-.16.7-.06.75v20.03l-.1 1.1-.26 1.16-.45 1.1-.62 1-.76.9-.9.75-1 .6-1.1.46-1.14.27-1.12.1h-12.34v-3h12.22l.77-.07.67-.17.65-.27.6-.37.54-.46.46-.54.37-.6.26-.65.16-.68.06-.76v-20.03l.1-1.1.26-1.16.45-1.1.6-1 .78-.9.9-.75 1-.62 1.08-.45 1.15-.27 1.12-.1h31.46z" stroke="#bdf139" stroke-width=".05" fill="#bdf139"/><path d="M-155.12-101.2h-1.54v-3h1.54z" fill="#bdf139"/><path d="M-155.1-101.18h-1.58v-3.05h1.6zm-1.53-3v2.95h1.5v-2.95z" stroke="#bdf139" stroke-width=".05" fill="#bdf139"/><path d="M-213.8-66.05l-14.26-4.63 14.26-4.63z" fill="#bdf139"/><path d="M-212.3-63.98l-20.62-6.7 20.62-6.7zm-10.9-6.7l7.9 2.57v-5.15z" stroke="#bdf139" stroke-width=".05" fill="#bdf139"/><use xlink:href="#n" transform="matrix(1,0,0,1,-194.01826109382392,-97.49479085132002) translate(0 14.4)"/><path d="M-99.35-133.66h-3v-20.15h3z" stroke="#bdf139" stroke-width=".05" fill="#bdf139"/><path d="M-99.35-153.77h-3v-1.54h3z" fill="#bdf139"/><path d="M-99.33-153.75h-3.05v-1.58h3.05zm-3-1.53v1.5h2.95v-1.5z" stroke="#bdf139" stroke-width=".05" fill="#bdf139"/><path d="M-100.85-117.9l-4.64-14.26h9.28z" fill="#bdf139"/><path d="M-100.85-113.04l-6.7-20.62h13.4zm-2.57-17.62l2.57 7.9 2.57-7.9z" stroke="#bdf139" stroke-width=".05" fill="#bdf139"/><use xlink:href="#n" transform="matrix(1,0,0,1,-100.85269331299014,-144.9753679391385) translate(0 14.4)"/><path d="M-175.74-64.54h-12.22l-.76.06-.7.16-.64.27-.6.37-.54.46-.46.53-.36.62-.27.65-.16.68-.06.77v20.7l-.1 1.1-.26 1.15-.45 1.1-.62 1-.76.9-.9.76-1 .6-1.1.46-1.14.27-1.12.08h-31.46v-3h31.34l.77-.06.67-.17.65-.27.6-.37.54-.47.46-.53.37-.6.26-.66.16-.68.06-.77v-20.7l.1-1.12.26-1.14.45-1.1.6-1 .78-.9.9-.75 1-.63 1.08-.45 1.15-.27 1.12-.1h12.34z" stroke="#bdf139" stroke-width=".05" fill="#bdf139"/><path d="M-231.38-31.85h-1.54v-3h1.54z" fill="#bdf139"/><path d="M-231.36-31.82h-1.58v-3.05h1.58zm-1.53-3v2.95h1.5v-2.95z" stroke="#bdf139" stroke-width=".05" fill="#bdf139"/><path d="M-159.97-66.04l-14.27 4.63v-9.28z" fill="#bdf139"/><path d="M-155.12-66.04l-20.62 6.7v-13.4zm-17.62 2.57l7.9-2.57-7.9-2.57z" stroke="#bdf139" stroke-width=".05" fill="#bdf139"/><use xlink:href="#n" transform="matrix(1,0,0,1,-194.0181855836143,-60.49478813038573) translate(0 14.4)"/><path d="M177.47 160.24h-3V92.1h3z" stroke="#bdf139" stroke-width=".05" fill="#bdf139"/><path d="M177.47 92.14h-3V90.6h3z" fill="#bdf139"/><path d="M177.5 92.17h-3.05v-1.6h3.05zm-3-1.54v1.5h2.95v-1.5z" stroke="#bdf139" stroke-width=".05" fill="#bdf139"/><path d="M175.97 176l-4.63-14.26h9.27z" fill="#bdf139"/><path d="M175.97 180.85l-6.7-20.6h13.4zm-2.57-17.6l2.57 7.9 2.57-7.9z" stroke="#bdf139" stroke-width=".05" fill="#bdf139"/><use xlink:href="#n" transform="matrix(1,0,0,1,175.97224030363972,124.92851242835188) translate(0 14.4)"/><path d="M178.67 333.23l-.1 1.1-.26 1.16-.44 1.08-.62 1-.76.9-.9.76-1 .62-1.1.45-1.13.28-1.12.1h-288.25v-3H171.1l.77-.07.7-.16.64-.26.6-.37.55-.45.46-.54.38-.6.27-.64.16-.7.07-.75v-87.75h3z" stroke="#bdf139" stroke-width=".05" fill="#bdf139"/><path d="M178.67 245.4h-3v-1.55h3z" fill="#bdf139"/><path d="M178.7 245.42h-3.05v-1.6h3.05zm-3-1.54v1.5h2.95v-1.5z" stroke="#bdf139" stroke-width=".05" fill="#bdf139"/><path d="M-118.52 343.8l-14.26-4.63 14.26-4.63z" fill="#bdf139"/><path d="M-117.02 345.87l-20.62-6.7 20.62-6.7zm-10.9-6.7l7.9 2.57v-5.14z" stroke="#bdf139" stroke-width=".05" fill="#bdf139"/><use xlink:href="#n" transform="matrix(1,0,0,1,67.42485826821095,328.3699182095433) translate(0 14.4)"/><path d="M-274.36 60.6H-321v-3h46.66z" stroke="#bdf139" stroke-width=".05" fill="#bdf139"/><path d="M-272.86 60.6h-1.53v-3h1.54z" fill="#bdf139"/><path d="M-272.83 60.63h-1.6v-3.05h1.6zm-1.54-3v2.95h1.5v-2.95z" stroke="#bdf139" stroke-width=".05" fill="#bdf139"/><path d="M-322.52 63.74l-14.26-4.64 14.26-4.63z" fill="#bdf139"/><path d="M-321.02 65.8l-20.62-6.7 20.62-6.7zm-10.9-6.7l7.9 2.57v-5.14z" stroke="#bdf139" stroke-width=".05" fill="#bdf139"/><use xlink:href="#n" transform="matrix(1,0,0,1,-307.24618339182587,48.302289666553676) translate(0 14.4)"/><path d="M-208.7 129.67l.05.76.17.7.27.64.36.6.45.54.55.47.6.36.65.27.7.17.75.06h16.88l1.1.1 1.16.26 1.07.44 1 .62.9.76.77.9.6 1 .46 1.1.28 1.14.1 1.1v18.58h-3V141.8l-.07-.78-.16-.68-.27-.65-.37-.6-.46-.55-.53-.46-.6-.38-.64-.27-.7-.16-.75-.07h-16.87l-1.1-.1-1.16-.26-1.08-.46-1.02-.6-.9-.77-.76-.9-.6-1-.46-1.08-.28-1.15-.1-1.1V92.1h3z" stroke="#bdf139" stroke-width=".05" fill="#bdf139"/><path d="M-208.7 92.14h-3V90.6h3z" fill="#bdf139"/><path d="M-208.68 92.17h-3.05v-1.6h3.05zm-3-1.54v1.5h2.95v-1.5z" stroke="#bdf139" stroke-width=".05" fill="#bdf139"/><path d="M-181.33 176l-4.64-14.26h9.27z" fill="#bdf139"/><path d="M-181.33 180.85l-6.7-20.6h13.4zm-2.57-17.6l2.57 7.9 2.57-7.9z" stroke="#bdf139" stroke-width=".05" fill="#bdf139"/><use xlink:href="#n" transform="matrix(1,0,0,1,-195.7700611433038,124.92850801282505) translate(0 14.4)"/><path d="M-164.24 124.54l.06.77.16.7.27.64.37.6.46.54.53.46.62.37.65.28.68.16.76.06H-5.2l1.12.1 1.14.27 1.1.45 1 .6.9.78.76.9.6 1 .46 1.08.28 1.15.08 1.1v23.7h-3v-23.57l-.05-.76-.17-.7-.27-.64-.37-.6-.46-.54-.53-.45-.6-.37-.66-.27-.67-.17-.76-.06H-159.8l-1.12-.1-1.14-.26-1.1-.45-1-.63-.9-.76-.76-.9-.6-1-.46-1.08-.28-1.14-.08-1.12V92.1h3z" stroke="#bdf139" stroke-width=".05" fill="#bdf139"/><path d="M-164.24 92.14h-3V90.6h3z" fill="#bdf139"/><path d="M-164.22 92.17h-3.05v-1.6h3.05zm-3-1.54v1.5h2.95v-1.5z" stroke="#bdf139" stroke-width=".05" fill="#bdf139"/><path d="M.72 176l-4.63-14.26h9.26z" fill="#bdf139"/><path d="M.72 180.85l-6.7-20.6h13.4zm-2.57-17.6l2.58 7.9 2.56-7.9z" stroke="#bdf139" stroke-width=".05" fill="#bdf139"/><use xlink:href="#n" transform="matrix(1,0,0,1,-77.38366792245148,119.80219135369545) translate(0 14.4)"/><path d="M-50.1 213.85h-47.53v-3h47.54z" stroke="#bdf139" stroke-width=".05" fill="#bdf139"/><path d="M-48.6 213.85h-1.53v-3h1.54z" fill="#bdf139"/><path d="M-48.56 213.88h-1.6v-3.05h1.6zm-1.54-3v2.95h1.5v-2.95z" stroke="#bdf139" stroke-width=".05" fill="#bdf139"/><path d="M-99.13 217l-14.27-4.65 14.27-4.63z" fill="#bdf139"/><path d="M-97.63 219.06l-20.62-6.7 20.62-6.7zm-10.92-6.7l7.92 2.56v-5.14z" stroke="#bdf139" stroke-width=".05" fill="#bdf139"/><use xlink:href="#n" transform="matrix(1,0,0,1,-83.42054409866645,201.5547251714448) translate(0 14.4)"/><path d="M-178.5 287.05h-3v-41.7h3z" stroke="#bdf139" stroke-width=".05" fill="#bdf139"/><path d="M-178.5 245.4h-3v-1.55h3z" fill="#bdf139"/><path d="M-178.47 245.42h-3.06v-1.6h3.06zm-3-1.54v1.5h2.94v-1.5z" stroke="#bdf139" stroke-width=".05" fill="#bdf139"/><path d="M-180 302.8l-4.63-14.25h9.26z" fill="#bdf139"/><path d="M-180 307.67l-6.7-20.62h13.4zm-2.57-17.62l2.57 7.9 2.57-7.9z" stroke="#bdf139" stroke-width=".05" fill="#bdf139"/><use xlink:href="#n" transform="matrix(1,0,0,1,-180.00000477752155,264.9623233128176) translate(0 14.4)"/><path d="M-247.83 306.17h-3V111.22h3z" stroke="#bdf139" stroke-width=".05" fill="#bdf139"/><path d="M-247.83 307.67h-3v-1.54h3z" fill="#bdf139"/><path d="M-247.8 307.7h-3.06v-1.6h3.05zm-3-1.54v1.48h2.94v-1.48z" stroke="#bdf139" stroke-width=".05" fill="#bdf139"/><path d="M-244.7 109.72h-9.27l4.64-14.26z" fill="#bdf139"/><path d="M-242.63 111.22h-13.4l6.7-20.62zm-9.27-3h5.14l-2.57-7.9z" stroke="#bdf139" stroke-width=".05" fill="#bdf139"/><use xlink:href="#n" transform="matrix(1,0,0,1,-249.33333729746602,188.33613804650858) translate(0 14.4)"/><path d="M-457.94 60.6h-25.5l-.77.06-.7.17-.65.27-.6.37-.53.45-.46.54-.37.6-.28.65-.17.7-.06.76V333.1l.06.77.16.7.27.64.36.6.46.55.53.46.6.38.66.26.7.17.75.07h204.27v3h-204.38l-1.12-.1-1.14-.26-1.1-.44-1-.62-.9-.76-.76-.9-.6-1-.46-1.1-.28-1.14-.08-1.1V65.03l.08-1.1.28-1.16.45-1.1.62-1 .77-.88.88-.77 1-.6 1.1-.46 1.14-.28 1.12-.1h25.62z" stroke="#bdf139" stroke-width=".05" fill="#bdf139"/><path d="M-277.68 340.67h-1.54v-3h1.54z" fill="#bdf139"/><path d="M-277.66 340.7h-1.6v-3.06h1.6zm-1.54-3v2.94h1.5v-2.94z" stroke="#bdf139" stroke-width=".05" fill="#bdf139"/><path d="M-442.18 59.1l-14.26 4.64v-9.27z" fill="#bdf139"/><path d="M-437.32 59.1l-20.63 6.7V52.4zm-17.63 2.57l7.92-2.57-7.92-2.57z" stroke="#bdf139" stroke-width=".05" fill="#bdf139"/><use xlink:href="#n" transform="matrix(1,0,0,1,-489.50511776229405,268.1567222858759) translate(0 14.4)"/><path d="M-387.98 160.24h-3V92.1h3z" stroke="#bdf139" stroke-width=".05" fill="#bdf139"/><path d="M-387.98 92.14h-3V90.6h3z" fill="#bdf139"/><path d="M-387.96 92.17H-391v-1.6h3.04zm-3-1.54v1.5h2.95v-1.5z" stroke="#bdf139" stroke-width=".05" fill="#bdf139"/><path d="M-389.48 176l-4.64-14.26h9.27z" fill="#bdf139"/><path d="M-389.48 180.85l-6.7-20.6h13.4zm-2.57-17.6l2.57 7.9 2.57-7.9z" stroke="#bdf139" stroke-width=".05" fill="#bdf139"/><use xlink:href="#n" transform="matrix(1,0,0,1,-389.4808642396533,124.92851867557154) translate(0 14.4)"/><path d="M-80.28 60.6h-46.66v-3h46.66z" stroke="#bdf139" stroke-width=".05" fill="#bdf139"/><path d="M-78.78 60.6h-1.53l-.02-3h1.54z" fill="#bdf139"/><path d="M-78.75 60.63h-1.6v-3.05h1.6zm-1.54-3v2.95h1.5v-2.95z" stroke="#bdf139" stroke-width=".05" fill="#bdf139"/><path d="M-128.44 63.74l-14.26-4.64 14.26-4.63z" fill="#bdf139"/><path d="M-126.94 65.8l-20.62-6.7 20.62-6.7zm-10.9-6.7l7.9 2.57v-5.14z" stroke="#bdf139" stroke-width=".05" fill="#bdf139"/><use xlink:href="#n" transform="matrix(1,0,0,1,-113.16744669617114,48.302289666553705) translate(0 14.4)"/><defs><path fill="#5f6572" d="M30-248c118-7 216 8 213 122C240-48 200 0 122 0H30v-248zM63-27c89 8 146-16 146-99s-60-101-146-95v194" id="o"/><path fill="#5f6572" d="M100-194c63 0 86 42 84 106H49c0 40 14 67 53 68 26 1 43-12 49-29l28 8c-11 28-37 45-77 45C44 4 14-33 15-96c1-61 26-98 85-98zm52 81c6-60-76-77-97-28-3 7-6 17-6 28h103" id="p"/><path fill="#5f6572" d="M115-194c55 1 70 41 70 98S169 2 115 4C84 4 66-9 55-30l1 105H24l-1-265h31l2 30c10-21 28-34 59-34zm-8 174c40 0 45-34 45-75s-6-73-45-74c-42 0-51 32-51 76 0 43 10 73 51 73" id="q"/><path fill="#5f6572" d="M117-194c89-4 53 116 60 194h-32v-121c0-31-8-49-39-48C34-167 62-67 57 0H25l-1-190h30c1 10-1 24 2 32 11-22 29-35 61-36" id="r"/><path fill="#5f6572" d="M85-194c31 0 48 13 60 33l-1-100h32l1 261h-30c-2-10 0-23-3-31C134-8 116 4 85 4 32 4 16-35 15-94c0-66 23-100 70-100zm9 24c-40 0-46 34-46 75 0 40 6 74 45 74 42 0 51-32 51-76 0-42-9-74-50-73" id="s"/><path fill="#5f6572" d="M96-169c-40 0-48 33-48 73s9 75 48 75c24 0 41-14 43-38l32 2c-6 37-31 61-74 61-59 0-76-41-82-99-10-93 101-131 147-64 4 7 5 14 7 22l-32 3c-4-21-16-35-41-35" id="t"/><path fill="#5f6572" d="M179-190L93 31C79 59 56 82 12 73V49c39 6 53-20 64-50L1-190h34L92-34l54-156h33" id="u"/><g id="a"><use transform="matrix(0.06111111111111111,0,0,0.06111111111111111,0,0)" xlink:href="#o"/><use transform="matrix(0.06111111111111111,0,0,0.06111111111111111,15.827777777777778,0)" xlink:href="#p"/><use transform="matrix(0.06111111111111111,0,0,0.06111111111111111,28.049999999999997,0)" xlink:href="#q"/><use transform="matrix(0.06111111111111111,0,0,0.06111111111111111,40.27222222222222,0)" xlink:href="#p"/><use transform="matrix(0.06111111111111111,0,0,0.06111111111111111,52.49444444444444,0)" xlink:href="#r"/><use transform="matrix(0.06111111111111111,0,0,0.06111111111111111,64.71666666666667,0)" xlink:href="#s"/><use transform="matrix(0.06111111111111111,0,0,0.06111111111111111,76.9388888888889,0)" xlink:href="#p"/><use transform="matrix(0.06111111111111111,0,0,0.06111111111111111,89.16111111111113,0)" xlink:href="#r"/><use transform="matrix(0.06111111111111111,0,0,0.06111111111111111,101.38333333333335,0)" xlink:href="#t"/><use transform="matrix(0.06111111111111111,0,0,0.06111111111111111,112.38333333333335,0)" xlink:href="#u"/></g><path fill="#5f6572" d="M30 0v-248h187v28H63v79h144v27H63v87h162V0H30" id="v"/><path fill="#5f6572" d="M84 4C-5 8 30-112 23-190h32v120c0 31 7 50 39 49 72-2 45-101 50-169h31l1 190h-30c-1-10 1-25-2-33-11 22-28 36-60 37" id="w"/><path fill="#5f6572" d="M210-169c-67 3-38 105-44 169h-31v-121c0-29-5-50-35-48C34-165 62-65 56 0H25l-1-190h30c1 10-1 24 2 32 10-44 99-50 107 0 11-21 27-35 58-36 85-2 47 119 55 194h-31v-121c0-29-5-49-35-48" id="x"/><g id="b"><use transform="matrix(0.06111111111111111,0,0,0.06111111111111111,0,0)" xlink:href="#v"/><use transform="matrix(0.06111111111111111,0,0,0.06111111111111111,14.666666666666666,0)" xlink:href="#r"/><use transform="matrix(0.06111111111111111,0,0,0.06111111111111111,26.888888888888886,0)" xlink:href="#w"/><use transform="matrix(0.06111111111111111,0,0,0.06111111111111111,39.11111111111111,0)" xlink:href="#x"/></g><path fill="#5f6572" d="M137 0h-34L2-248h35l83 218 83-218h36" id="y"/><path fill="#5f6572" d="M141-36C126-15 110 5 73 4 37 3 15-17 15-53c-1-64 63-63 125-63 3-35-9-54-41-54-24 1-41 7-42 31l-33-3c5-37 33-52 76-52 45 0 72 20 72 64v82c-1 20 7 32 28 27v20c-31 9-61-2-59-35zM48-53c0 20 12 33 32 33 41-3 63-29 60-74-43 2-92-5-92 41" id="z"/><path fill="#5f6572" d="M24 0v-261h32V0H24" id="A"/><g id="c"><use transform="matrix(0.06111111111111111,0,0,0.06111111111111111,0,0)" xlink:href="#y"/><use transform="matrix(0.06111111111111111,0,0,0.06111111111111111,13.016666666666666,0)" xlink:href="#z"/><use transform="matrix(0.06111111111111111,0,0,0.06111111111111111,25.238888888888887,0)" xlink:href="#A"/><use transform="matrix(0.06111111111111111,0,0,0.06111111111111111,30.066666666666663,0)" xlink:href="#w"/><use transform="matrix(0.06111111111111111,0,0,0.06111111111111111,42.288888888888884,0)" xlink:href="#p"/></g><path fill="#5f6572" d="M233-177c-1 41-23 64-60 70L243 0h-38l-65-103H63V0H30v-248c88 3 205-21 203 71zM63-129c60-2 137 13 137-47 0-61-80-42-137-45v92" id="B"/><path fill="#5f6572" d="M101-234c-31-9-42 10-38 44h38v23H63V0H32v-167H5v-23h27c-7-52 17-82 69-68v24" id="C"/><path fill="#5f6572" d="M114-163C36-179 61-72 57 0H25l-1-190h30c1 12-1 29 2 39 6-27 23-49 58-41v29" id="D"/><g id="d"><use transform="matrix(0.06111111111111111,0,0,0.06111111111111111,0,0)" xlink:href="#B"/><use transform="matrix(0.06111111111111111,0,0,0.06111111111111111,15.827777777777778,0)" xlink:href="#p"/><use transform="matrix(0.06111111111111111,0,0,0.06111111111111111,28.049999999999997,0)" xlink:href="#C"/><use transform="matrix(0.06111111111111111,0,0,0.06111111111111111,34.16111111111111,0)" xlink:href="#p"/><use transform="matrix(0.06111111111111111,0,0,0.06111111111111111,46.38333333333333,0)" xlink:href="#D"/><use transform="matrix(0.06111111111111111,0,0,0.06111111111111111,53.65555555555555,0)" xlink:href="#p"/><use transform="matrix(0.06111111111111111,0,0,0.06111111111111111,65.87777777777777,0)" xlink:href="#r"/><use transform="matrix(0.06111111111111111,0,0,0.06111111111111111,78.1,0)" xlink:href="#t"/><use transform="matrix(0.06111111111111111,0,0,0.06111111111111111,89.1,0)" xlink:href="#p"/></g><path fill="#5f6572" d="M141 0L90-78 38 0H4l68-98-65-92h35l48 74 47-74h35l-64 92 68 98h-35" id="E"/><path fill="#5f6572" d="M59-47c-2 24 18 29 38 22v24C64 9 27 4 27-40v-127H5v-23h24l9-43h21v43h35v23H59v120" id="F"/><path fill="#5f6572" d="M135-143c-3-34-86-38-87 0 15 53 115 12 119 90S17 21 10-45l28-5c4 36 97 45 98 0-10-56-113-15-118-90-4-57 82-63 122-42 12 7 21 19 24 35" id="G"/><path fill="#5f6572" d="M24-231v-30h32v30H24zM24 0v-190h32V0H24" id="H"/><path fill="#5f6572" d="M100-194c62-1 85 37 85 99 1 63-27 99-86 99S16-35 15-95c0-66 28-99 85-99zM99-20c44 1 53-31 53-75 0-43-8-75-51-75s-53 32-53 75 10 74 51 75" id="I"/><g id="e"><use transform="matrix(0.06111111111111111,0,0,0.06111111111111111,0,0)" xlink:href="#v"/><use transform="matrix(0.06111111111111111,0,0,0.06111111111111111,14.666666666666666,0)" xlink:href="#E"/><use transform="matrix(0.06111111111111111,0,0,0.06111111111111111,25.666666666666664,0)" xlink:href="#F"/><use transform="matrix(0.06111111111111111,0,0,0.06111111111111111,31.777777777777775,0)" xlink:href="#p"/><use transform="matrix(0.06111111111111111,0,0,0.06111111111111111,44,0)" xlink:href="#r"/><use transform="matrix(0.06111111111111111,0,0,0.06111111111111111,56.22222222222222,0)" xlink:href="#G"/><use transform="matrix(0.06111111111111111,0,0,0.06111111111111111,67.22222222222223,0)" xlink:href="#H"/><use transform="matrix(0.06111111111111111,0,0,0.06111111111111111,72.05000000000001,0)" xlink:href="#I"/><use transform="matrix(0.06111111111111111,0,0,0.06111111111111111,84.27222222222224,0)" xlink:href="#r"/></g><path fill="#5f6572" d="M240 0l2-218c-23 76-54 145-80 218h-23L58-218 59 0H30v-248h44l77 211c21-75 51-140 76-211h43V0h-30" id="J"/><path fill="#5f6572" d="M177-190C167-65 218 103 67 71c-23-6-38-20-44-43l32-5c15 47 100 32 89-28v-30C133-14 115 1 83 1 29 1 15-40 15-95c0-56 16-97 71-98 29-1 48 16 59 35 1-10 0-23 2-32h30zM94-22c36 0 50-32 50-73 0-42-14-75-50-75-39 0-46 34-46 75s6 73 46 73" id="K"/><g id="f"><use transform="matrix(0.06111111111111111,0,0,0.06111111111111111,0,0)" xlink:href="#J"/><use transform="matrix(0.06111111111111111,0,0,0.06111111111111111,18.272222222222222,0)" xlink:href="#p"/><use transform="matrix(0.06111111111111111,0,0,0.06111111111111111,30.494444444444444,0)" xlink:href="#G"/><use transform="matrix(0.06111111111111111,0,0,0.06111111111111111,41.49444444444444,0)" xlink:href="#G"/><use transform="matrix(0.06111111111111111,0,0,0.06111111111111111,52.49444444444444,0)" xlink:href="#z"/><use transform="matrix(0.06111111111111111,0,0,0.06111111111111111,64.71666666666667,0)" xlink:href="#K"/><use transform="matrix(0.06111111111111111,0,0,0.06111111111111111,76.9388888888889,0)" xlink:href="#p"/></g><path fill="#5f6572" d="M30-248c87 1 191-15 191 75 0 78-77 80-158 76V0H30v-248zm33 125c57 0 124 11 124-50 0-59-68-47-124-48v98" id="L"/><path fill="#5f6572" d="M143 0L79-87 56-68V0H24v-261h32v163l83-92h37l-77 82L181 0h-38" id="M"/><g id="g"><use transform="matrix(0.06111111111111111,0,0,0.06111111111111111,0,0)" xlink:href="#L"/><use transform="matrix(0.06111111111111111,0,0,0.06111111111111111,14.666666666666666,0)" xlink:href="#z"/><use transform="matrix(0.06111111111111111,0,0,0.06111111111111111,26.888888888888886,0)" xlink:href="#t"/><use transform="matrix(0.06111111111111111,0,0,0.06111111111111111,37.888888888888886,0)" xlink:href="#M"/><use transform="matrix(0.06111111111111111,0,0,0.06111111111111111,48.888888888888886,0)" xlink:href="#z"/><use transform="matrix(0.06111111111111111,0,0,0.06111111111111111,61.11111111111111,0)" xlink:href="#K"/><use transform="matrix(0.06111111111111111,0,0,0.06111111111111111,73.33333333333333,0)" xlink:href="#p"/></g><path fill="#5f6572" d="M106-169C34-169 62-67 57 0H25v-261h32l-1 103c12-21 28-36 61-36 89 0 53 116 60 194h-32v-121c2-32-8-49-39-48" id="N"/><g id="h"><use transform="matrix(0.06111111111111111,0,0,0.06111111111111111,0,0)" xlink:href="#J"/><use transform="matrix(0.06111111111111111,0,0,0.06111111111111111,18.272222222222222,0)" xlink:href="#p"/><use transform="matrix(0.06111111111111111,0,0,0.06111111111111111,30.494444444444444,0)" xlink:href="#F"/><use transform="matrix(0.06111111111111111,0,0,0.06111111111111111,36.605555555555554,0)" xlink:href="#N"/><use transform="matrix(0.06111111111111111,0,0,0.06111111111111111,48.827777777777776,0)" xlink:href="#I"/><use transform="matrix(0.06111111111111111,0,0,0.06111111111111111,61.05,0)" xlink:href="#s"/></g><path fill="#5f6572" d="M185-189c-5-48-123-54-124 2 14 75 158 14 163 119 3 78-121 87-175 55-17-10-28-26-33-46l33-7c5 56 141 63 141-1 0-78-155-14-162-118-5-82 145-84 179-34 5 7 8 16 11 25" id="O"/><path fill="#5f6572" d="M108 0H70L1-190h34L89-25l56-165h34" id="P"/><g id="i"><use transform="matrix(0.06111111111111111,0,0,0.06111111111111111,0,0)" xlink:href="#O"/><use transform="matrix(0.06111111111111111,0,0,0.06111111111111111,14.666666666666666,0)" xlink:href="#p"/><use transform="matrix(0.06111111111111111,0,0,0.06111111111111111,26.888888888888886,0)" xlink:href="#D"/><use transform="matrix(0.06111111111111111,0,0,0.06111111111111111,34.16111111111111,0)" xlink:href="#P"/><use transform="matrix(0.06111111111111111,0,0,0.06111111111111111,45.16111111111111,0)" xlink:href="#H"/><use transform="matrix(0.06111111111111111,0,0,0.06111111111111111,49.98888888888889,0)" xlink:href="#t"/><use transform="matrix(0.06111111111111111,0,0,0.06111111111111111,60.98888888888889,0)" xlink:href="#p"/></g><path fill="#5f6572" d="M140-251c81 0 123 46 123 126C263-46 219 4 140 4 59 4 17-45 17-125s42-126 123-126zm0 227c63 0 89-41 89-101s-29-99-89-99c-61 0-89 39-89 99S79-25 140-24" id="Q"/><g id="j"><use transform="matrix(0.06111111111111111,0,0,0.06111111111111111,0,0)" xlink:href="#Q"/><use transform="matrix(0.06111111111111111,0,0,0.06111111111111111,17.11111111111111,0)" xlink:href="#r"/><use transform="matrix(0.06111111111111111,0,0,0.06111111111111111,29.333333333333332,0)" xlink:href="#p"/><use transform="matrix(0.06111111111111111,0,0,0.06111111111111111,41.55555555555556,0)" xlink:href="#I"/><use transform="matrix(0.06111111111111111,0,0,0.06111111111111111,53.77777777777778,0)" xlink:href="#C"/></g><g id="k"><use transform="matrix(0.06111111111111111,0,0,0.06111111111111111,0,0)" xlink:href="#v"/><use transform="matrix(0.06111111111111111,0,0,0.06111111111111111,14.666666666666666,0)" xlink:href="#r"/><use transform="matrix(0.06111111111111111,0,0,0.06111111111111111,26.888888888888886,0)" xlink:href="#w"/><use transform="matrix(0.06111111111111111,0,0,0.06111111111111111,39.11111111111111,0)" xlink:href="#x"/></g><path fill="#5f6572" d="M63-220v92h138v28H63V0H30v-248h175v28H63" id="R"/><g id="l"><use transform="matrix(0.06111111111111111,0,0,0.06111111111111111,0,0)" xlink:href="#R"/><use transform="matrix(0.06111111111111111,0,0,0.06111111111111111,13.383333333333333,0)" xlink:href="#H"/><use transform="matrix(0.06111111111111111,0,0,0.06111111111111111,18.21111111111111,0)" xlink:href="#p"/><use transform="matrix(0.06111111111111111,0,0,0.06111111111111111,30.43333333333333,0)" xlink:href="#A"/><use transform="matrix(0.06111111111111111,0,0,0.06111111111111111,35.261111111111106,0)" xlink:href="#s"/></g><g id="m"><use transform="matrix(0.06111111111111111,0,0,0.06111111111111111,0,0)" xlink:href="#R"/><use transform="matrix(0.06111111111111111,0,0,0.06111111111111111,13.383333333333333,0)" xlink:href="#H"/><use transform="matrix(0.06111111111111111,0,0,0.06111111111111111,18.21111111111111,0)" xlink:href="#A"/><use transform="matrix(0.06111111111111111,0,0,0.06111111111111111,23.038888888888884,0)" xlink:href="#p"/></g></defs></g></svg>