<svg xmlns="http://www.w3.org/2000/svg" xmlns:xlink="http://www.w3.org/1999/xlink" xmlns:lucid="lucid" width="799" height="672"><g transform="translate(520 258)" lucid:page-tab-id="0_0"><path d="M-1000-500H500V500h-1500z" fill="#21252c"/><path d="M-2.34-86.75a6 6 0 0 1 6-6H154.9a6 6 0 0 1 6 6v49a6 6 0 0 1-6 6H3.67a6 6 0 0 1-6-6z" stroke="#a9a9a9" stroke-width="2" fill="#f5fbff"/><use xlink:href="#a" transform="matrix(1,0,0,1,9.66061160927569,-80.74582624866233) translate(8.308333333333323 22.225)"/><path d="M-432.32 206.15a6 6 0 0 1 6-6h148.6a6 6 0 0 1 6 6v49a6 6 0 0 1-6 6h-148.6a6 6 0 0 1-6-6z" stroke="#a9a9a9" stroke-width="2" fill="#f5fbff"/><use xlink:href="#b" transform="matrix(1,0,0,1,-420.3246142396533,212.15175204750906) translate(9.497222222222227 22.225)"/><use xlink:href="#c" transform="matrix(1,0,0,1,-420.3246142396533,212.15175204750906) translate(72.99166666666667 22.225)"/><path d="M-196.42 322.3a6 6 0 0 1 6-6h126.05a6 6 0 0 1 6 6v49a6 6 0 0 1-6 6h-126.05a6 6 0 0 1-6-6z" stroke="#a9a9a9" stroke-width="2" fill="#f5fbff"/><use xlink:href="#d" transform="matrix(1,0,0,1,-184.4156876945948,328.30027841894093) translate(6.838888888888889 22.225)"/><path d="M-73.78 52.9a6 6 0 0 1 6-6H56.86a6 6 0 0 1 6 6v49a6 6 0 0 1-6 6H-67.78a6 6 0 0 1-6-6z" stroke="#a9a9a9" stroke-width="2" fill="#f5fbff"/><use xlink:href="#e" transform="matrix(1,0,0,1,-61.77651584834376,58.89931654261795) translate(8.252777777777766 22.225)"/><path d="M-267.86 52.9a6 6 0 0 1 6-6h111.3a6 6 0 0 1 6 6v49a6 6 0 0 1-6 6h-111.3a6 6 0 0 1-6-6z" stroke="#a9a9a9" stroke-width="2" fill="#f5fbff"/><use xlink:href="#f" transform="matrix(1,0,0,1,-255.85525254399852,58.89931654261791) translate(5.419444444444437 22.225)"/><path d="M-184.66-211.3a6 6 0 0 1 6-6h94.53a6 6 0 0 1 6 6v49a6 6 0 0 1-6 6h-94.53a6 6 0 0 1-6-6z" stroke="#a9a9a9" stroke-width="2" fill="#f5fbff"/><use xlink:href="#g" transform="matrix(1,0,0,1,-172.65700612258075,-205.3079637185839) translate(-1.2777777777777715 22.9)"/><path d="M124.7 206.15a6 6 0 0 1 6-6h100.94a6 6 0 0 1 6 6v49a6 6 0 0 1-6 6H130.7a6 6 0 0 1-6-6z" stroke="#a9a9a9" stroke-width="2" fill="#f5fbff"/><use xlink:href="#h" transform="matrix(1,0,0,1,136.70227604232036,212.15175204750906) translate(7.863888888888894 22.225)"/><path d="M133.65 52.9a6 6 0 0 1 6-6h97.95a6 6 0 0 1 6 6v49a6 6 0 0 1-6 6h-97.95a6 6 0 0 1-6-6z" stroke="#a9a9a9" stroke-width="2" fill="#f5fbff"/><use xlink:href="#i" transform="matrix(1,0,0,1,145.645970847311,58.89931654261795) translate(6.394444444444446 22.225)"/><path d="M-43.6 206.15a6 6 0 0 1 6-6h84.64a6 6 0 0 1 6 6v49a6 6 0 0 1-6 6H-37.6a6 6 0 0 1-6-6z" stroke="#a9a9a9" stroke-width="2" fill="#f5fbff"/><use xlink:href="#j" transform="matrix(1,0,0,1,-31.58793738500418,212.15175204750906) translate(6.555555555555557 22.225)"/><path d="M-432.32 52.9a6 6 0 0 1 6-6h81.68a6 6 0 0 1 6 6v49a6 6 0 0 1-6 6h-81.69a6 6 0 0 1-6-6z" stroke="#a9a9a9" stroke-width="2" fill="#f5fbff"/><use xlink:href="#k" transform="matrix(1,0,0,1,-420.3246142396533,58.89931654261791) translate(6.308333333333337 22.225)"/><path d="M-200.07 206.15a6 6 0 0 1 6-6h72.82a6 6 0 0 1 6 6v49a6 6 0 0 1-6 6h-72.82a6 6 0 0 1-6-6z" stroke="#a9a9a9" stroke-width="2" fill="#f5fbff"/><use xlink:href="#l" transform="matrix(1,0,0,1,-188.06565081232873,212.15175204750906) translate(6.758333333333336 22.225)"/><path d="M-184.66-106.04a6 6 0 0 1 6-6h89.44a6 6 0 0 1 6 6v49a6 6 0 0 1-6 6h-89.44a6 6 0 0 1-6-6z" stroke="#a9a9a9" stroke-width="2" fill="#f5fbff"/><use xlink:href="#m" transform="matrix(1,0,0,1,-172.65700612258075,-100.04276931197887) translate(21.369444444444447 22.225)"/><path d="M-160.2-8l-.1 1.1-.27 1.15-.45 1.08-.6 1-.78.9-.9.77-1 .61-1.1.47-1.13.27-1.12.1h-211.77l-.76.05-.7.15-.64.27-.6.37-.54.45-.46.54-.37.6-.26.64-.16.7-.06.75v21.28h-3V3.88l.1-1.13.26-1.14.45-1.08.62-1 .76-.9.9-.76 1-.62 1.1-.45 1.15-.28 1.1-.1h211.8l.75-.05.68-.17.66-.27.6-.36.53-.46.46-.53.37-.6.27-.65.16-.7.06-.75v-40.4h3z" stroke="#ffff00" stroke-width=".05" fill="#ffff00"/><path d="M-160.2-48.5h-3v-1.54h3z" fill="#ffff00"/><path d="M-160.18-48.48h-3.05v-1.6h3.05zm-3-1.54v1.5h2.95v-1.5z" stroke="#ffff00" stroke-width=".05" fill="#ffff00"/><path d="M-385.48 41.05l-4.64-14.27h9.27z" fill="#ffff00"/><path d="M-385.48 45.9l-6.7-20.62h13.4zm-2.57-17.62l2.57 7.9 2.57-7.9z" stroke="#ffff00" stroke-width=".05" fill="#ffff00"/><use xlink:href="#n" transform="matrix(1,0,0,1,-273.593579729328,-12.871710861153112) translate(0 14.4)"/><path d="M-132.44 7.6l-.1 1.13-.26 1.14-.45 1.1-.62 1-.76.9-.9.75-1 .62-1.1.45-1.13.27-1.12.08h-60.27l-.76.06-.7.18-.65.27-.6.37-.54.45-.44.54-.37.6-.28.66-.17.7-.06.75v5.68h-3v-5.8l.08-1.1.28-1.15.45-1.08.62-1 .77-.9.88-.77 1-.6 1.1-.46 1.14-.28 1.1-.1H-140l.76-.05.7-.17.64-.27.6-.37.54-.47.46-.54.37-.6.27-.66.16-.68.06-.77v-56.04h3z" stroke="#ffe342" stroke-width=".05" fill="#ffe342"/><path d="M-132.44-48.5h-3v-1.54h3z" fill="#ffe342"/><path d="M-132.4-48.48h-3.06v-1.6h3.05zm-3-1.54v1.5h2.94v-1.5z" stroke="#ffe342" stroke-width=".05" fill="#ffe342"/><path d="M-206.2 41.05l-4.64-14.27h9.27z" fill="#ffe342"/><path d="M-206.2 45.9l-6.7-20.62h13.4zm-2.58-17.62l2.57 7.9 2.56-7.9z" stroke="#ffe342" stroke-width=".05" fill="#ffe342"/><use xlink:href="#n" transform="matrix(1,0,0,1,-154.44821700775063,2.753026726865702) translate(0 14.4)"/><path d="M-102.2-8.13l.06.76.17.7.27.64.37.6.45.54.54.47.6.36.65.27.7.17.76.06h280.32l1.12.1 1.14.26 1.1.44 1 .62.9.76.75.9.6 1 .46 1.1.28 1.13.08 1.12v21.4h-3V4l-.06-.77-.16-.7-.27-.64-.37-.6-.46-.55-.54-.46-.6-.38-.65-.27-.67-.16-.77-.07H-97.76l-1.1-.1-1.16-.26-1.1-.45-1-.62-.88-.77-.77-.9-.62-1-.44-1.08-.27-1.15-.1-1.1v-40.54h3z" stroke="#ffe342" stroke-width=".05" fill="#ffe342"/><path d="M-102.2-48.5h-3v-1.54h3z" fill="#ffe342"/><path d="M-102.17-48.48h-3.05v-1.6h3.05zm-3-1.54v1.5h2.95v-1.5z" stroke="#ffe342" stroke-width=".05" fill="#ffe342"/><path d="M188.62 41.05L184 26.78h9.26z" fill="#ffe342"/><path d="M188.62 45.9l-6.7-20.62h13.4zm-2.57-17.62l2.57 7.9 2.57-7.9z" stroke="#ffe342" stroke-width=".05" fill="#ffe342"/><use xlink:href="#n" transform="matrix(1,0,0,1,42.4620486663142,-12.871743291054571) translate(0 14.4)"/><path d="M-116.14 7.5l.06.76.16.68.27.65.37.6.46.53.54.46.6.36.65.27.7.16.75.05H-11.4l1.12.1 1.14.27 1.1.45 1 .6.9.78.75.9.63 1 .45 1.08.28 1.15.08 1.1v5.8h-3V19.6l-.06-.75-.16-.7-.27-.64-.37-.6-.46-.53-.53-.45-.6-.37-.67-.27-.68-.17-.77-.05H-111.7l-1.1-.1-1.16-.26-1.1-.46-1-.62-.9-.76-.75-.9-.63-1-.45-1.1-.27-1.13-.1-1.12v-56.14h3z" stroke="#ffff00" stroke-width=".05" fill="#ffff00"/><path d="M-116.14-48.5h-3v-1.54h3z" fill="#ffff00"/><path d="M-116.12-48.48h-3.05v-1.6h3.05zm-3-1.54v1.5h2.95v-1.5z" stroke="#ffff00" stroke-width=".05" fill="#ffff00"/><path d="M-5.46 41.05l-4.63-14.27H-.8z" fill="#ffff00"/><path d="M-5.46 45.9l-6.7-20.62h13.4zm-2.57-17.62l2.57 7.9 2.58-7.9z" stroke="#ffff00" stroke-width=".05" fill="#ffff00"/><use xlink:href="#n" transform="matrix(1,0,0,1,-77.17333261330316,2.753026726865702) translate(0 14.4)"/><path d="M-47.6-82.95l1.14.27 1.1.45 1 .62.9.75.75.9.6 1 .46 1.1.27 1.13.1 1.12v7.3l.05.76.16.68.27.66.38.6.46.53.54.46.6.36.65.27.7.16.75.05h12.76v3h-12.88l-1.1-.08-1.16-.28-1.1-.46-1-.6-.9-.78-.75-.9-.62-1-.45-1.1-.27-1.13-.08-1.12v-7.28l-.06-.77-.16-.68-.27-.65-.37-.6-.46-.54-.54-.46-.6-.37-.65-.27-.68-.16-.76-.06h-31.88v-3h32z" stroke="#ffff00" stroke-width=".05" fill="#ffff00"/><path d="M-80.68-80.04h-1.54v-3h1.54z" fill="#ffff00"/><path d="M-80.66-80.02h-1.6v-3.05h1.6zm-1.54-3v2.95h1.5v-2.95z" stroke="#ffff00" stroke-width=".05" fill="#ffff00"/><path d="M-8.2-62.25l-14.26 4.64v-9.28z" fill="#ffff00"/><path d="M-3.34-62.25l-20.62 6.7v-13.4zm-17.62 2.58l7.9-2.58-7.9-2.57z" stroke="#ffff00" stroke-width=".05" fill="#ffff00"/><use xlink:href="#n" transform="matrix(1,0,0,1,-42.78031625665255,-82.6942977803206) translate(0 14.4)"/><path d="M-129.9-133.66h-3v-20.15h3z" stroke="#ffff00" stroke-width=".05" fill="#ffff00"/><path d="M-129.9-153.77h-3v-1.54h3z" fill="#ffff00"/><path d="M-129.87-153.75h-3.05v-1.58h3.05zm-3-1.53v1.5h2.95v-1.5z" stroke="#ffff00" stroke-width=".05" fill="#ffff00"/><path d="M-131.4-117.9l-4.63-14.26h9.27z" fill="#ffff00"/><path d="M-131.4-113.04l-6.7-20.62h13.4zm-2.56-17.62l2.57 7.9 2.58-7.9z" stroke="#ffff00" stroke-width=".05" fill="#ffff00"/><use xlink:href="#n" transform="matrix(1,0,0,1,-131.3922501945948,-144.9753679391385) translate(0 14.4)"/><path d="M-47.6-61.04l1.14.28 1.1.45 1 .6.9.77.75.9.6 1 .46 1.1.27 1.13.1 1.12v3.47l.05.75.16.68.27.66.38.6.46.52.54.46.6.37.65.27.7.16.75.06h31.88v3h-32l-1.1-.08-1.16-.28-1.1-.45-1-.6-.9-.78-.75-.9-.62-1-.45-1.1-.27-1.13-.08-1.12v-3.46l-.06-.77-.16-.68-.27-.66-.37-.6-.46-.54-.54-.46-.6-.37-.65-.27-.68-.16-.76-.06H-61.6v-3h12.88z" stroke="#ffff00" stroke-width=".05" fill="#ffff00"/><path d="M-3.34-42.66h-1.54v-3h1.54z" fill="#ffff00"/><path d="M-3.3-42.63h-1.6v-3.05h1.6zm-1.55-3v2.95h1.5v-2.95z" stroke="#ffff00" stroke-width=".05" fill="#ffff00"/><path d="M-63.1-55l-14.27-4.62 14.27-4.64z" fill="#ffff00"/><path d="M-61.6-52.92l-20.62-6.7 20.62-6.7zm-10.9-6.7l7.9 2.57v-5.14z" stroke="#ffff00" stroke-width=".05" fill="#ffff00"/><use xlink:href="#n" transform="matrix(1,0,0,1,-42.78027543019724,-62.689334690509725) translate(0 14.4)"/><path d="M181.47 178.53h-3V110.4h3z" stroke="#ffff00" stroke-width=".05" fill="#ffff00"/><path d="M181.47 110.44h-3v-1.54h3z" fill="#ffff00"/><path d="M181.5 110.46h-3.05v-1.6h3.05zm-3-1.54v1.5h2.95v-1.5z" stroke="#ffff00" stroke-width=".05" fill="#ffff00"/><path d="M179.97 194.3l-4.63-14.27h9.27z" fill="#ffff00"/><path d="M179.97 199.15l-6.7-20.62h13.4zm-2.57-17.62l2.57 7.9 2.57-7.9z" stroke="#ffff00" stroke-width=".05" fill="#ffff00"/><use xlink:href="#n" transform="matrix(1,0,0,1,179.97224030363972,143.22553930441612) translate(0 14.4)"/><path d="M182.67 340.86l-.1 1.1-.26 1.16-.44 1.1-.62 1-.76.9-.9.75-1 .62-1.1.44-1.13.27-1.12.1H-36.75v-3H175.1l.77-.06.7-.16.64-.27.6-.36.55-.46.46-.54.38-.6.27-.65.16-.7.07-.76v-77.1h3z" stroke="#ffff00" stroke-width=".05" fill="#ffff00"/><path d="M182.67 263.7h-3v-1.55h3z" fill="#ffff00"/><path d="M182.7 263.7h-3.05v-1.57h3.05zm-3-1.52v1.5h2.95v-1.5z" stroke="#ffff00" stroke-width=".05" fill="#ffff00"/><path d="M-38.25 351.44l-14.27-4.64 14.27-4.63z" fill="#ffff00"/><path d="M-36.75 353.5l-20.62-6.7 20.62-6.7zm-10.9-6.7l7.9 2.57v-5.14z" stroke="#ffff00" stroke-width=".05" fill="#ffff00"/><use xlink:href="#n" transform="matrix(1,0,0,1,104.22536985957953,336.0002784189409) translate(0 14.4)"/><path d="M-270.36 78.9H-317v-3h46.66z" stroke="#ffff00" stroke-width=".05" fill="#ffff00"/><path d="M-268.86 78.9h-1.53v-3h1.54z" fill="#ffff00"/><path d="M-268.83 78.92h-1.6v-3.05h1.6zm-1.54-3v2.95h1.5v-2.95z" stroke="#ffff00" stroke-width=".05" fill="#ffff00"/><path d="M-318.52 82.03l-14.26-4.63 14.26-4.64z" fill="#ffff00"/><path d="M-317.02 84.1l-20.62-6.7 20.62-6.7zm-10.9-6.7l7.9 2.57v-5.14z" stroke="#ffff00" stroke-width=".05" fill="#ffff00"/><use xlink:href="#n" transform="matrix(1,0,0,1,-303.24618339182587,66.59931654261791) translate(0 14.4)"/><path d="M-204.7 147.97l.05.76.17.7.27.64.36.6.45.53.55.46.6.37.65.27.7.17.75.06h16.88l1.1.08 1.16.3 1.07.44 1 .6.9.78.77.9.6 1 .46 1.1.28 1.13.1 1.12v18.56h-3v-18.45l-.07-.76-.16-.68-.27-.65-.37-.62-.46-.53-.53-.46-.6-.38-.64-.27-.7-.16-.75-.07h-16.87l-1.1-.1-1.16-.27-1.08-.45-1.02-.6-.9-.77-.76-.9-.6-1-.46-1.1-.28-1.13-.1-1.12V110.4h3z" stroke="#ffff00" stroke-width=".05" fill="#ffff00"/><path d="M-204.7 110.44h-3v-1.54h3z" fill="#ffff00"/><path d="M-204.68 110.46h-3.05v-1.6h3.05zm-3-1.54v1.5h2.95v-1.5z" stroke="#ffff00" stroke-width=".05" fill="#ffff00"/><path d="M-177.33 194.3l-4.64-14.27h9.27z" fill="#ffff00"/><path d="M-177.33 199.15l-6.7-20.62h13.4zm-2.57-17.62l2.57 7.9 2.57-7.9z" stroke="#ffff00" stroke-width=".05" fill="#ffff00"/><use xlink:href="#n" transform="matrix(1,0,0,1,-191.7700611433038,143.22553488888929) translate(0 14.4)"/><path d="M-160.24 142.84l.06.76.16.7.27.64.37.6.46.54.53.46.62.37.65.28.68.16.76.06H-1.2l1.12.1 1.14.26 1.1.45 1 .63.9.76.76.9.6 1 .46 1.08.28 1.14.08 1.12v23.7h-3v-23.58l-.06-.76-.16-.7-.27-.64-.37-.6-.46-.54-.53-.46-.6-.37-.66-.28-.67-.16-.76-.06H-155.8l-1.12-.1-1.14-.26-1.1-.45-1-.63-.9-.76-.76-.9-.6-1-.46-1.08-.28-1.15-.08-1.1V110.4h3z" stroke="#ffff00" stroke-width=".05" fill="#ffff00"/><path d="M-160.24 110.44h-3v-1.54h3z" fill="#ffff00"/><path d="M-160.22 110.46h-3.05v-1.6h3.05zm-3-1.54v1.5h2.95v-1.5z" stroke="#ffff00" stroke-width=".05" fill="#ffff00"/><path d="M4.72 194.3L.1 180.03h9.26z" fill="#ffff00"/><path d="M4.72 199.15l-6.7-20.62h13.4zm-2.57-17.62l2.57 7.9 2.58-7.9z" stroke="#ffff00" stroke-width=".05" fill="#ffff00"/><use xlink:href="#n" transform="matrix(1,0,0,1,-73.38366792245145,138.09921822975969) translate(0 14.4)"/><path d="M-46.1 232.15h-47.53v-3h47.54z" stroke="#ffff00" stroke-width=".05" fill="#ffff00"/><path d="M-44.6 232.15h-1.53v-3h1.54z" fill="#ffff00"/><path d="M-44.56 232.18h-1.6v-3.05h1.6zm-1.54-3v2.95h1.5v-2.95z" stroke="#ffff00" stroke-width=".05" fill="#ffff00"/><path d="M-95.13 235.3l-14.27-4.65 14.27-4.63z" fill="#ffff00"/><path d="M-93.63 237.35l-20.62-6.7 20.62-6.7zm-10.92-6.7l7.92 2.57v-5.14z" stroke="#ffff00" stroke-width=".05" fill="#ffff00"/><use xlink:href="#n" transform="matrix(1,0,0,1,-79.42054409866645,219.85175204750905) translate(0 14.4)"/><path d="M-156.16 282.67l.06.76.16.7.28.64.36.6.46.53.54.46.6.37.65.27.7.17.75.06h18.3l1.12.08 1.14.3 1.08.43 1 .62.9.76.75.9.6 1 .45 1.07.27 1.14.08 1.06-3 .24-.05-.82-.17-.68-.26-.64-.37-.6-.45-.53-.53-.45-.6-.36-.64-.27-.68-.16-.76-.07h-18.32l-1.1-.1-1.16-.27-1.1-.45-1-.6-.9-.77-.75-.9-.62-1-.45-1.08-.27-1.15-.1-1.1v-19.15h3z" stroke="#ffff00" stroke-width=".05" fill="#ffff00"/><path d="M-156.16 263.7h-3v-1.55h3z" fill="#ffff00"/><path d="M-156.13 263.7h-3.05v-1.57h3.05zm-3-1.52v1.5h2.95v-1.5z" stroke="#ffff00" stroke-width=".05" fill="#ffff00"/><path d="M-127.4 310.45l-4.63-14.27h9.27z" fill="#ffff00"/><path d="M-127.4 315.3l-6.7-20.62h13.4zm-2.56-17.62l2.57 7.9 2.58-7.9z" stroke="#ffff00" stroke-width=".05" fill="#ffff00"/><use xlink:href="#n" transform="matrix(1,0,0,1,-142.52582550346176,277.9260152332253) translate(0 14.4)"/><path d="M-237.83 286.24l.06.76.16.7.26.64.37.6.46.54.52.46.6.37.66.28.68.16.77.06H-175l1.1.1 1.15.26 1.1.45 1 .63.9.76.76.9.62 1 .45 1.08.28 1.15.08 1.1v15.57h-3v-15.44l-.06-.76-.16-.7-.26-.64-.37-.6-.46-.54-.52-.46-.6-.37-.66-.28-.68-.16-.76-.06h-58.27l-1.1-.1-1.15-.26-1.1-.45-1-.63-.9-.76-.75-.9-.62-1-.45-1.08-.28-1.15-.08-1.1V129.5h3z" stroke="#ffff00" stroke-width=".05" fill="#ffff00"/><path d="M-167.57 315.3h-3v-1.54h3z" fill="#ffff00"/><path d="M-167.54 315.32h-3.05v-1.58h3.06zm-3-1.53v1.47h2.95v-1.48z" stroke="#ffff00" stroke-width=".05" fill="#ffff00"/><path d="M-234.7 128.02h-9.27l4.64-14.27z" fill="#ffff00"/><path d="M-232.63 129.52h-13.4l6.7-20.62zm-9.27-3h5.14l-2.57-7.9z" stroke="#ffff00" stroke-width=".05" fill="#ffff00"/><use xlink:href="#n" transform="matrix(1,0,0,1,-239.33333578718822,236.4336730633083) translate(0 14.4)"/><path d="M-453.94 78.9h-25.5l-.77.06-.7.16-.65.27-.6.36-.53.46-.46.54-.37.6-.28.65-.17.7-.06.76v257.28l.06.76.16.7.27.64.36.6.46.54.53.46.6.37.66.28.7.16.75.06h280.53v3h-280.64l-1.12-.1-1.14-.26-1.1-.45-1-.63-.9-.76-.76-.9-.6-1-.46-1.08-.28-1.15-.08-1.1V83.33l.08-1.12.28-1.14.45-1.1.62-1 .77-.9.88-.75 1-.62 1.1-.44 1.14-.27 1.12-.1h25.62z" stroke="#ffff00" stroke-width=".05" fill="#ffff00"/><path d="M-197.42 348.3h-1.53v-3h1.53z" fill="#ffff00"/><path d="M-197.4 348.32h-1.58v-3.05h1.6zm-1.53-3v2.95h1.5v-2.94z" stroke="#ffff00" stroke-width=".05" fill="#ffff00"/><path d="M-438.18 77.4l-14.26 4.63v-9.27z" fill="#ffff00"/><path d="M-433.32 77.4l-20.63 6.7V70.7zm-17.63 2.57l7.92-2.57-7.92-2.57z" stroke="#ffff00" stroke-width=".05" fill="#ffff00"/><use xlink:href="#n" transform="matrix(1,0,0,1,-485.50511776229405,319.2542607533087) translate(0 14.4)"/><path d="M-383.98 178.53h-3V110.4h3z" stroke="#ffff00" stroke-width=".05" fill="#ffff00"/><path d="M-383.98 110.44h-3v-1.54h3z" fill="#ffff00"/><path d="M-383.96 110.46H-387v-1.6h3.04zm-3-1.54v1.5h2.95v-1.5z" stroke="#ffff00" stroke-width=".05" fill="#ffff00"/><path d="M-385.48 194.3l-4.64-14.27h9.27z" fill="#ffff00"/><path d="M-385.48 199.15l-6.7-20.62h13.4zm-2.57-17.62l2.57 7.9 2.57-7.9z" stroke="#ffff00" stroke-width=".05" fill="#ffff00"/><use xlink:href="#n" transform="matrix(1,0,0,1,-385.4808642396533,143.22554555163578) translate(0 14.4)"/><path d="M-76.28 78.9h-46.66v-3h46.66z" stroke="#ffff00" stroke-width=".05" fill="#ffff00"/><path d="M-74.78 78.9h-1.53l-.02-3h1.54z" fill="#ffff00"/><path d="M-74.75 78.92h-1.6v-3.05h1.6zm-1.54-3v2.95h1.5v-2.95z" stroke="#ffff00" stroke-width=".05" fill="#ffff00"/><path d="M-124.44 82.03l-14.26-4.63 14.26-4.64z" fill="#ffff00"/><path d="M-122.94 84.1l-20.62-6.7 20.62-6.7zm-10.9-6.7l7.9 2.57v-5.14z" stroke="#ffff00" stroke-width=".05" fill="#ffff00"/><use xlink:href="#n" transform="matrix(1,0,0,1,-109.16744669617114,66.59931654261796) translate(0 14.4)"/><path d="M282-211.3a6 6 0 0 1 6-6h100a6 6 0 0 1 6 6v593.33a6 6 0 0 1-6 6H288a6 6 0 0 1-6-6z" fill="none"/><path d="M282 388.02c5.52 0 10-4.47 10-10V95.36c0-5.52 4.48-10 10-10-5.52 0-10-4.48-10-10V-207.3c0-5.53-4.48-10-10-10" stroke="#a9a9a9" stroke-width="2" fill="none"/><defs><path fill="#5f6572" d="M30-248c118-7 216 8 213 122C240-48 200 0 122 0H30v-248zM63-27c89 8 146-16 146-99s-60-101-146-95v194" id="o"/><path fill="#5f6572" d="M100-194c63 0 86 42 84 106H49c0 40 14 67 53 68 26 1 43-12 49-29l28 8c-11 28-37 45-77 45C44 4 14-33 15-96c1-61 26-98 85-98zm52 81c6-60-76-77-97-28-3 7-6 17-6 28h103" id="p"/><path fill="#5f6572" d="M115-194c55 1 70 41 70 98S169 2 115 4C84 4 66-9 55-30l1 105H24l-1-265h31l2 30c10-21 28-34 59-34zm-8 174c40 0 45-34 45-75s-6-73-45-74c-42 0-51 32-51 76 0 43 10 73 51 73" id="q"/><path fill="#5f6572" d="M117-194c89-4 53 116 60 194h-32v-121c0-31-8-49-39-48C34-167 62-67 57 0H25l-1-190h30c1 10-1 24 2 32 11-22 29-35 61-36" id="r"/><path fill="#5f6572" d="M85-194c31 0 48 13 60 33l-1-100h32l1 261h-30c-2-10 0-23-3-31C134-8 116 4 85 4 32 4 16-35 15-94c0-66 23-100 70-100zm9 24c-40 0-46 34-46 75 0 40 6 74 45 74 42 0 51-32 51-76 0-42-9-74-50-73" id="s"/><path fill="#5f6572" d="M96-169c-40 0-48 33-48 73s9 75 48 75c24 0 41-14 43-38l32 2c-6 37-31 61-74 61-59 0-76-41-82-99-10-93 101-131 147-64 4 7 5 14 7 22l-32 3c-4-21-16-35-41-35" id="t"/><path fill="#5f6572" d="M179-190L93 31C79 59 56 82 12 73V49c39 6 53-20 64-50L1-190h34L92-34l54-156h33" id="u"/><g id="a"><use transform="matrix(0.06111111111111111,0,0,0.06111111111111111,0,0)" xlink:href="#o"/><use transform="matrix(0.06111111111111111,0,0,0.06111111111111111,15.827777777777778,0)" xlink:href="#p"/><use transform="matrix(0.06111111111111111,0,0,0.06111111111111111,28.049999999999997,0)" xlink:href="#q"/><use transform="matrix(0.06111111111111111,0,0,0.06111111111111111,40.27222222222222,0)" xlink:href="#p"/><use transform="matrix(0.06111111111111111,0,0,0.06111111111111111,52.49444444444444,0)" xlink:href="#r"/><use transform="matrix(0.06111111111111111,0,0,0.06111111111111111,64.71666666666667,0)" xlink:href="#s"/><use transform="matrix(0.06111111111111111,0,0,0.06111111111111111,76.9388888888889,0)" xlink:href="#p"/><use transform="matrix(0.06111111111111111,0,0,0.06111111111111111,89.16111111111113,0)" xlink:href="#r"/><use transform="matrix(0.06111111111111111,0,0,0.06111111111111111,101.38333333333335,0)" xlink:href="#t"/><use transform="matrix(0.06111111111111111,0,0,0.06111111111111111,112.38333333333335,0)" xlink:href="#u"/></g><path fill="#5f6572" d="M30 0v-248h187v28H63v79h144v27H63v87h162V0H30" id="v"/><path fill="#5f6572" d="M84 4C-5 8 30-112 23-190h32v120c0 31 7 50 39 49 72-2 45-101 50-169h31l1 190h-30c-1-10 1-25-2-33-11 22-28 36-60 37" id="w"/><path fill="#5f6572" d="M210-169c-67 3-38 105-44 169h-31v-121c0-29-5-50-35-48C34-165 62-65 56 0H25l-1-190h30c1 10-1 24 2 32 10-44 99-50 107 0 11-21 27-35 58-36 85-2 47 119 55 194h-31v-121c0-29-5-49-35-48" id="x"/><g id="b"><use transform="matrix(0.06111111111111111,0,0,0.06111111111111111,0,0)" xlink:href="#v"/><use transform="matrix(0.06111111111111111,0,0,0.06111111111111111,14.666666666666666,0)" xlink:href="#r"/><use transform="matrix(0.06111111111111111,0,0,0.06111111111111111,26.888888888888886,0)" xlink:href="#w"/><use transform="matrix(0.06111111111111111,0,0,0.06111111111111111,39.11111111111111,0)" xlink:href="#x"/></g><path fill="#5f6572" d="M137 0h-34L2-248h35l83 218 83-218h36" id="y"/><path fill="#5f6572" d="M141-36C126-15 110 5 73 4 37 3 15-17 15-53c-1-64 63-63 125-63 3-35-9-54-41-54-24 1-41 7-42 31l-33-3c5-37 33-52 76-52 45 0 72 20 72 64v82c-1 20 7 32 28 27v20c-31 9-61-2-59-35zM48-53c0 20 12 33 32 33 41-3 63-29 60-74-43 2-92-5-92 41" id="z"/><path fill="#5f6572" d="M24 0v-261h32V0H24" id="A"/><g id="c"><use transform="matrix(0.06111111111111111,0,0,0.06111111111111111,0,0)" xlink:href="#y"/><use transform="matrix(0.06111111111111111,0,0,0.06111111111111111,13.016666666666666,0)" xlink:href="#z"/><use transform="matrix(0.06111111111111111,0,0,0.06111111111111111,25.238888888888887,0)" xlink:href="#A"/><use transform="matrix(0.06111111111111111,0,0,0.06111111111111111,30.066666666666663,0)" xlink:href="#w"/><use transform="matrix(0.06111111111111111,0,0,0.06111111111111111,42.288888888888884,0)" xlink:href="#p"/></g><path fill="#5f6572" d="M233-177c-1 41-23 64-60 70L243 0h-38l-65-103H63V0H30v-248c88 3 205-21 203 71zM63-129c60-2 137 13 137-47 0-61-80-42-137-45v92" id="B"/><path fill="#5f6572" d="M101-234c-31-9-42 10-38 44h38v23H63V0H32v-167H5v-23h27c-7-52 17-82 69-68v24" id="C"/><path fill="#5f6572" d="M114-163C36-179 61-72 57 0H25l-1-190h30c1 12-1 29 2 39 6-27 23-49 58-41v29" id="D"/><g id="d"><use transform="matrix(0.06111111111111111,0,0,0.06111111111111111,0,0)" xlink:href="#B"/><use transform="matrix(0.06111111111111111,0,0,0.06111111111111111,15.827777777777778,0)" xlink:href="#p"/><use transform="matrix(0.06111111111111111,0,0,0.06111111111111111,28.049999999999997,0)" xlink:href="#C"/><use transform="matrix(0.06111111111111111,0,0,0.06111111111111111,34.16111111111111,0)" xlink:href="#p"/><use transform="matrix(0.06111111111111111,0,0,0.06111111111111111,46.38333333333333,0)" xlink:href="#D"/><use transform="matrix(0.06111111111111111,0,0,0.06111111111111111,53.65555555555555,0)" xlink:href="#p"/><use transform="matrix(0.06111111111111111,0,0,0.06111111111111111,65.87777777777777,0)" xlink:href="#r"/><use transform="matrix(0.06111111111111111,0,0,0.06111111111111111,78.1,0)" xlink:href="#t"/><use transform="matrix(0.06111111111111111,0,0,0.06111111111111111,89.1,0)" xlink:href="#p"/></g><path fill="#5f6572" d="M141 0L90-78 38 0H4l68-98-65-92h35l48 74 47-74h35l-64 92 68 98h-35" id="E"/><path fill="#5f6572" d="M59-47c-2 24 18 29 38 22v24C64 9 27 4 27-40v-127H5v-23h24l9-43h21v43h35v23H59v120" id="F"/><path fill="#5f6572" d="M135-143c-3-34-86-38-87 0 15 53 115 12 119 90S17 21 10-45l28-5c4 36 97 45 98 0-10-56-113-15-118-90-4-57 82-63 122-42 12 7 21 19 24 35" id="G"/><path fill="#5f6572" d="M24-231v-30h32v30H24zM24 0v-190h32V0H24" id="H"/><path fill="#5f6572" d="M100-194c62-1 85 37 85 99 1 63-27 99-86 99S16-35 15-95c0-66 28-99 85-99zM99-20c44 1 53-31 53-75 0-43-8-75-51-75s-53 32-53 75 10 74 51 75" id="I"/><g id="e"><use transform="matrix(0.06111111111111111,0,0,0.06111111111111111,0,0)" xlink:href="#v"/><use transform="matrix(0.06111111111111111,0,0,0.06111111111111111,14.666666666666666,0)" xlink:href="#E"/><use transform="matrix(0.06111111111111111,0,0,0.06111111111111111,25.666666666666664,0)" xlink:href="#F"/><use transform="matrix(0.06111111111111111,0,0,0.06111111111111111,31.777777777777775,0)" xlink:href="#p"/><use transform="matrix(0.06111111111111111,0,0,0.06111111111111111,44,0)" xlink:href="#r"/><use transform="matrix(0.06111111111111111,0,0,0.06111111111111111,56.22222222222222,0)" xlink:href="#G"/><use transform="matrix(0.06111111111111111,0,0,0.06111111111111111,67.22222222222223,0)" xlink:href="#H"/><use transform="matrix(0.06111111111111111,0,0,0.06111111111111111,72.05000000000001,0)" xlink:href="#I"/><use transform="matrix(0.06111111111111111,0,0,0.06111111111111111,84.27222222222224,0)" xlink:href="#r"/></g><path fill="#5f6572" d="M240 0l2-218c-23 76-54 145-80 218h-23L58-218 59 0H30v-248h44l77 211c21-75 51-140 76-211h43V0h-30" id="J"/><path fill="#5f6572" d="M177-190C167-65 218 103 67 71c-23-6-38-20-44-43l32-5c15 47 100 32 89-28v-30C133-14 115 1 83 1 29 1 15-40 15-95c0-56 16-97 71-98 29-1 48 16 59 35 1-10 0-23 2-32h30zM94-22c36 0 50-32 50-73 0-42-14-75-50-75-39 0-46 34-46 75s6 73 46 73" id="K"/><g id="f"><use transform="matrix(0.06111111111111111,0,0,0.06111111111111111,0,0)" xlink:href="#J"/><use transform="matrix(0.06111111111111111,0,0,0.06111111111111111,18.272222222222222,0)" xlink:href="#p"/><use transform="matrix(0.06111111111111111,0,0,0.06111111111111111,30.494444444444444,0)" xlink:href="#G"/><use transform="matrix(0.06111111111111111,0,0,0.06111111111111111,41.49444444444444,0)" xlink:href="#G"/><use transform="matrix(0.06111111111111111,0,0,0.06111111111111111,52.49444444444444,0)" xlink:href="#z"/><use transform="matrix(0.06111111111111111,0,0,0.06111111111111111,64.71666666666667,0)" xlink:href="#K"/><use transform="matrix(0.06111111111111111,0,0,0.06111111111111111,76.9388888888889,0)" xlink:href="#p"/></g><path fill="#5f6572" d="M30-248c87 1 191-15 191 75 0 78-77 80-158 76V0H30v-248zm33 125c57 0 124 11 124-50 0-59-68-47-124-48v98" id="L"/><path fill="#5f6572" d="M143 0L79-87 56-68V0H24v-261h32v163l83-92h37l-77 82L181 0h-38" id="M"/><g id="g"><use transform="matrix(0.06111111111111111,0,0,0.06111111111111111,0,0)" xlink:href="#L"/><use transform="matrix(0.06111111111111111,0,0,0.06111111111111111,14.666666666666666,0)" xlink:href="#z"/><use transform="matrix(0.06111111111111111,0,0,0.06111111111111111,26.888888888888886,0)" xlink:href="#t"/><use transform="matrix(0.06111111111111111,0,0,0.06111111111111111,37.888888888888886,0)" xlink:href="#M"/><use transform="matrix(0.06111111111111111,0,0,0.06111111111111111,48.888888888888886,0)" xlink:href="#z"/><use transform="matrix(0.06111111111111111,0,0,0.06111111111111111,61.11111111111111,0)" xlink:href="#K"/><use transform="matrix(0.06111111111111111,0,0,0.06111111111111111,73.33333333333333,0)" xlink:href="#p"/></g><path fill="#5f6572" d="M106-169C34-169 62-67 57 0H25v-261h32l-1 103c12-21 28-36 61-36 89 0 53 116 60 194h-32v-121c2-32-8-49-39-48" id="N"/><g id="h"><use transform="matrix(0.06111111111111111,0,0,0.06111111111111111,0,0)" xlink:href="#J"/><use transform="matrix(0.06111111111111111,0,0,0.06111111111111111,18.272222222222222,0)" xlink:href="#p"/><use transform="matrix(0.06111111111111111,0,0,0.06111111111111111,30.494444444444444,0)" xlink:href="#F"/><use transform="matrix(0.06111111111111111,0,0,0.06111111111111111,36.605555555555554,0)" xlink:href="#N"/><use transform="matrix(0.06111111111111111,0,0,0.06111111111111111,48.827777777777776,0)" xlink:href="#I"/><use transform="matrix(0.06111111111111111,0,0,0.06111111111111111,61.05,0)" xlink:href="#s"/></g><path fill="#5f6572" d="M185-189c-5-48-123-54-124 2 14 75 158 14 163 119 3 78-121 87-175 55-17-10-28-26-33-46l33-7c5 56 141 63 141-1 0-78-155-14-162-118-5-82 145-84 179-34 5 7 8 16 11 25" id="O"/><path fill="#5f6572" d="M108 0H70L1-190h34L89-25l56-165h34" id="P"/><g id="i"><use transform="matrix(0.06111111111111111,0,0,0.06111111111111111,0,0)" xlink:href="#O"/><use transform="matrix(0.06111111111111111,0,0,0.06111111111111111,14.666666666666666,0)" xlink:href="#p"/><use transform="matrix(0.06111111111111111,0,0,0.06111111111111111,26.888888888888886,0)" xlink:href="#D"/><use transform="matrix(0.06111111111111111,0,0,0.06111111111111111,34.16111111111111,0)" xlink:href="#P"/><use transform="matrix(0.06111111111111111,0,0,0.06111111111111111,45.16111111111111,0)" xlink:href="#H"/><use transform="matrix(0.06111111111111111,0,0,0.06111111111111111,49.98888888888889,0)" xlink:href="#t"/><use transform="matrix(0.06111111111111111,0,0,0.06111111111111111,60.98888888888889,0)" xlink:href="#p"/></g><path fill="#5f6572" d="M140-251c81 0 123 46 123 126C263-46 219 4 140 4 59 4 17-45 17-125s42-126 123-126zm0 227c63 0 89-41 89-101s-29-99-89-99c-61 0-89 39-89 99S79-25 140-24" id="Q"/><g id="j"><use transform="matrix(0.06111111111111111,0,0,0.06111111111111111,0,0)" xlink:href="#Q"/><use transform="matrix(0.06111111111111111,0,0,0.06111111111111111,17.11111111111111,0)" xlink:href="#r"/><use transform="matrix(0.06111111111111111,0,0,0.06111111111111111,29.333333333333332,0)" xlink:href="#p"/><use transform="matrix(0.06111111111111111,0,0,0.06111111111111111,41.55555555555556,0)" xlink:href="#I"/><use transform="matrix(0.06111111111111111,0,0,0.06111111111111111,53.77777777777778,0)" xlink:href="#C"/></g><g id="k"><use transform="matrix(0.06111111111111111,0,0,0.06111111111111111,0,0)" xlink:href="#v"/><use transform="matrix(0.06111111111111111,0,0,0.06111111111111111,14.666666666666666,0)" xlink:href="#r"/><use transform="matrix(0.06111111111111111,0,0,0.06111111111111111,26.888888888888886,0)" xlink:href="#w"/><use transform="matrix(0.06111111111111111,0,0,0.06111111111111111,39.11111111111111,0)" xlink:href="#x"/></g><path fill="#5f6572" d="M63-220v92h138v28H63V0H30v-248h175v28H63" id="R"/><g id="l"><use transform="matrix(0.06111111111111111,0,0,0.06111111111111111,0,0)" xlink:href="#R"/><use transform="matrix(0.06111111111111111,0,0,0.06111111111111111,13.383333333333333,0)" xlink:href="#H"/><use transform="matrix(0.06111111111111111,0,0,0.06111111111111111,18.21111111111111,0)" xlink:href="#p"/><use transform="matrix(0.06111111111111111,0,0,0.06111111111111111,30.43333333333333,0)" xlink:href="#A"/><use transform="matrix(0.06111111111111111,0,0,0.06111111111111111,35.261111111111106,0)" xlink:href="#s"/></g><g id="m"><use transform="matrix(0.06111111111111111,0,0,0.06111111111111111,0,0)" xlink:href="#R"/><use transform="matrix(0.06111111111111111,0,0,0.06111111111111111,13.383333333333333,0)" xlink:href="#H"/><use transform="matrix(0.06111111111111111,0,0,0.06111111111111111,18.21111111111111,0)" xlink:href="#A"/><use transform="matrix(0.06111111111111111,0,0,0.06111111111111111,23.038888888888884,0)" xlink:href="#p"/></g></defs></g></svg>