<svg xmlns="http://www.w3.org/2000/svg" xmlns:xlink="http://www.w3.org/1999/xlink" xmlns:lucid="lucid" width="687" height="563"><g transform="translate(465 251)" lucid:page-tab-id="0_0"><path d="M-1000-500h2000V500h-2000z" fill="#21252c"/><path d="M10.35-71.23a6 6 0 0 1 6-6H167.6a6 6 0 0 1 6 6v49a6 6 0 0 1-6 6H16.35a6 6 0 0 1-6-6z" stroke="#a9a9a9" stroke-width="2" fill="#f5fbff"/><use xlink:href="#a" transform="matrix(1,0,0,1,22.353349123250723,-65.23100603792284) translate(8.308333333333323 22.225)"/><path d="M-432.38 212.7a6 6 0 0 1 6-6h121.84a6 6 0 0 1 6 6v49a6 6 0 0 1-6 6h-121.84a6 6 0 0 1-6-6z" stroke="#a9a9a9" stroke-width="2" fill="#f5fbff"/><use xlink:href="#b" transform="matrix(1,0,0,1,-420.3758939164069,218.71160774822363) translate(-0.9472222222222229 22.9)"/><path d="M-412.3-71.23a6 6 0 0 1 6-6h124.64a6 6 0 0 1 6 6v49a6 6 0 0 1-6 6H-406.3a6 6 0 0 1-6-6z" stroke="#373737" stroke-width="2" fill="#f5fbff"/><use xlink:href="#c" transform="matrix(1,0,0,1,-400.30350715080624,-65.23100603792284) translate(8.252777777777766 22.225)"/><path d="M-195.6 70.74a6 6 0 0 1 6-6h111.3a6 6 0 0 1 6 6v49a6 6 0 0 1-6 6h-111.3a6 6 0 0 1-6-6z" stroke="#a9a9a9" stroke-width="2" fill="#f5fbff"/><use xlink:href="#d" transform="matrix(1,0,0,1,-183.5875626945948,76.7403008551504) translate(5.419444444444437 22.225)"/><path d="M-184.66-202.84a6 6 0 0 1 6-6h94.53a6 6 0 0 1 6 6v49a6 6 0 0 1-6 6h-94.53a6 6 0 0 1-6-6z" stroke="#a9a9a9" stroke-width="2" fill="#f5fbff"/><use xlink:href="#e" transform="matrix(1,0,0,1,-172.65700612258075,-196.83817038114057) translate(-1.2777777777777715 22.9)"/><path d="M76.18 212.7a6 6 0 0 1 6-6h100.94a6 6 0 0 1 6 6v49a6 6 0 0 1-6 6H82.18a6 6 0 0 1-6-6z" stroke="#a9a9a9" stroke-width="2" fill="#f5fbff"/><use xlink:href="#f" transform="matrix(1,0,0,1,88.1781443369548,218.71160774822363) translate(7.863888888888894 22.225)"/><path d="M79.16 70.74a6 6 0 0 1 6-6h97.96a6 6 0 0 1 6 6v49a6 6 0 0 1-6 6H85.16a6 6 0 0 1-6-6z" stroke="#a9a9a9" stroke-width="2" fill="#f5fbff"/><use xlink:href="#g" transform="matrix(1,0,0,1,91.16251933695477,76.74030085515045) translate(6.394444444444446 22.225)"/><path d="M-86.27 212.7a6 6 0 0 1 6-6H4.35a6 6 0 0 1 6 6v49a6 6 0 0 1-6 6h-84.62a6 6 0 0 1-6-6z" stroke="#a9a9a9" stroke-width="2" fill="#f5fbff"/><use xlink:href="#h" transform="matrix(1,0,0,1,-74.27165087674928,218.7116077482236) translate(6.555555555555557 22.225)"/><path d="M-412.3 70.74a6 6 0 0 1 6-6h81.68a6 6 0 0 1 6 6v49a6 6 0 0 1-6 6h-81.68a6 6 0 0 1-6-6z" stroke="#a9a9a9" stroke-width="2" fill="#f5fbff"/><use xlink:href="#i" transform="matrix(1,0,0,1,-400.30350715080624,76.7403008551504) translate(6.308333333333337 22.225)"/><path d="M-261.2 212.7a6 6 0 0 1 6-6h72.82a6 6 0 0 1 6 6v49a6 6 0 0 1-6 6h-72.8a6 6 0 0 1-6-6z" stroke="#a9a9a9" stroke-width="2" fill="#f5fbff"/><use xlink:href="#j" transform="matrix(1,0,0,1,-249.19083371085992,218.7116077482236) translate(6.758333333333336 22.225)"/><path d="M-184.66-97.57a6 6 0 0 1 6-6h89.44a6 6 0 0 1 6 6v49a6 6 0 0 1-6 6h-89.44a6 6 0 0 1-6-6z" stroke="#a9a9a9" stroke-width="2" fill="#f5fbff"/><use xlink:href="#k" transform="matrix(1,0,0,1,-172.65700612258075,-91.57297597453555) translate(21.369444444444447 22.225)"/><path d="M-160.7 16.28l-.1 1.2-.3 1.23-.47 1.17-.66 1.07-.82.96-.95.82-1.07.65-1.16.48-1.22.3-1.22.1h-176.88l-.98.07-.92.22-.87.36-.8.5-.7.6-.62.7-.5.82-.36.87-.2.9-.1.98v14.96h-2V30.2l.1-1.2.3-1.23.48-1.16.65-1.06.82-.96.95-.8 1.07-.67 1.17-.47 1.22-.3 1.2-.1h176.9l.97-.07.92-.22.87-.36.8-.5.7-.6.63-.7.5-.82.35-.87.22-.92.07-.98v-56.77h2z" stroke="#6db1ff" stroke-width=".05" fill="#6db1ff"/><path d="M-160.7-40.55h-2v-1.02h2z" fill="#6db1ff"/><path d="M-160.68-40.52h-2.05v-1.08h2.05zm-2-1.03v.98h1.95v-.98z" stroke="#6db1ff" stroke-width=".05" fill="#6db1ff"/><path d="M-352.6 60.5l-4.63-14.26h9.27z" fill="#6db1ff"/><path d="M-352.6 63.74l-6-18.5h12.02zm-3.25-16.5l3.26 10.03 3.27-10.03z" stroke="#6db1ff" stroke-width=".05" fill="#6db1ff"/><use xlink:href="#l" transform="matrix(1,0,0,1,-244.99258751057639,12.440363640260113) translate(0 14.4)"/><path d="M-132.94 45.24h-2v-85.8h2z" stroke="#6db1ff" stroke-width=".05" fill="#6db1ff"/><path d="M-132.94-40.55h-2v-1.02h2z" fill="#6db1ff"/><path d="M-132.9-40.52h-2.06v-1.08h2.05zm-2-1.03v.98h1.94v-.98z" stroke="#6db1ff" stroke-width=".05" fill="#6db1ff"/><path d="M-133.94 60.5l-4.63-14.26h9.27z" fill="#6db1ff"/><path d="M-133.94 63.74l-6-18.5h12zm-3.26-16.5l3.26 10.03 3.26-10.03z" stroke="#6db1ff" stroke-width=".05" fill="#6db1ff"/><use xlink:href="#l" transform="matrix(1,0,0,1,-133.9391251945948,0.2836624403075767) translate(0 14.4)"/><path d="M-102.7 16.2l.08.98.22.9.36.88.5.8.6.72.72.6.8.5.87.36.9.22 1 .08h223.83l1.2.1 1.23.3 1.17.47 1.07.67.96.8.8.97.67 1.07.48 1.17.3 1.22.1 1.2v15.04h-2V30.28l-.1-.98-.2-.9-.37-.88-.5-.8-.6-.72-.72-.6-.8-.5-.87-.36-.92-.22-.98-.08H-96.74l-1.2-.1-1.23-.3-1.16-.47-1.07-.66-.96-.8-.8-.96-.67-1.07-.48-1.16-.3-1.2-.1-1.22v-56.85h2z" stroke="#6db1ff" stroke-width=".05" fill="#6db1ff"/><path d="M-102.7-40.55h-2v-1.02h2z" fill="#6db1ff"/><path d="M-102.67-40.52h-2.05v-1.08h2.05zm-2-1.03v.98h1.95v-.98z" stroke="#6db1ff" stroke-width=".05" fill="#6db1ff"/><path d="M134.14 60.5l-4.64-14.26h9.27z" fill="#6db1ff"/><path d="M134.14 63.74l-6-18.5h12zm-3.26-16.5l3.26 10.03 3.26-10.03z" stroke="#6db1ff" stroke-width=".05" fill="#6db1ff"/><use xlink:href="#l" transform="matrix(1,0,0,1,3.0636048048092874,12.440363640260113) translate(0 14.4)"/><path d="M-186.66-72.07h-36.46l-.98.07-.9.22-.88.36-.8.5-.72.6-.6.72-.5.8-.36.87-.22.92-.08.97v12.34l-.1 1.22-.3 1.22-.47 1.16-.66 1.07-.8.96-.96.8-1.07.67-1.16.48-1.2.3-1.22.1h-19.04v-2h18.96l.98-.1.9-.2.88-.37.8-.48.72-.6.6-.73.5-.8.36-.88.22-.9.08-1V-66.1l.1-1.23.3-1.22.47-1.16.67-1.08.8-.95.97-.82 1.07-.65 1.17-.48 1.22-.3 1.2-.1h36.54z" stroke="#6db1ff" stroke-width=".05" fill="#6db1ff"/><path d="M-185.66-72.07h-1.02v-2h1.02z" fill="#6db1ff"/><path d="M-185.63-72.05h-1.08v-2.05h1.07zm-1.03-2v1.95h.98v-1.95z" stroke="#6db1ff" stroke-width=".05" fill="#6db1ff"/><path d="M-257.16-42.1l-14.27-4.63 14.27-4.64z" fill="#6db1ff"/><path d="M-256.16-40.72l-18.5-6 18.5-6.02zm-12.03-6l10.04 3.25V-50z" stroke="#6db1ff" stroke-width=".05" fill="#6db1ff"/><use xlink:href="#l" transform="matrix(1,0,0,1,-230.15994413669347,-70.70199100622918) translate(0 14.4)"/><path d="M-42.18-73.98l1.22.3 1.16.48 1.07.65.95.82.82.95.66 1.07.48 1.15.3 1.22.1 1.22v12.33l.06.98.22.92.36.87.5.8.6.7.72.62.8.5.87.35.93.22.98.07h20.25v2h-20.32l-1.22-.1-1.2-.3-1.17-.47-1.07-.66-.95-.8-.8-.97-.66-1.07-.48-1.16-.3-1.22-.1-1.2v-12.35l-.07-.98-.23-.93-.36-.87-.48-.8-.6-.7-.73-.63-.8-.5-.88-.35-.92-.22-.97-.07h-29.76v-2h29.84z" stroke="#6db1ff" stroke-width=".05" fill="#6db1ff"/><path d="M-67.35-65.44l-12.9-7.63 12.9-7.64z" fill="#6db1ff"/><path d="M-66.35-63.68l-15.87-9.4 15.87-9.38zm-11.94-9.4l9.95 5.9v-11.77z" stroke="#6db1ff" stroke-width=".05" fill="#6db1ff"/><path d="M6.12-46.73L-8.15-42.1v-9.27z" fill="#6db1ff"/><path d="M9.35-46.73l-18.5 6v-12zm-16.5 3.26l10.03-3.26L-7.15-50z" stroke="#6db1ff" stroke-width=".05" fill="#6db1ff"/><use xlink:href="#l" transform="matrix(1,0,0,1,-36.43394749966503,-70.70199100622919) translate(0 14.4)"/><path d="M-130.4-123.08h-2v-22.76h2z" stroke="#6db1ff" stroke-width=".05" fill="#6db1ff"/><path d="M-130.4-145.8h-2v-1.04h2z" fill="#6db1ff"/><path d="M-130.37-145.8h-2.05v-1.06h2.05zm-2-1v.96h1.95v-.97z" stroke="#6db1ff" stroke-width=".05" fill="#6db1ff"/><path d="M-131.4-107.8l-4.63-14.28h9.27z" fill="#6db1ff"/><path d="M-131.4-104.57l-6-18.5h12.02zm-3.25-16.5l3.26 10.02 3.27-10.03z" stroke="#6db1ff" stroke-width=".05" fill="#6db1ff"/><use xlink:href="#l" transform="matrix(1,0,0,1,-131.3922501945948,-136.50557460169517) translate(0 14.4)"/><path d="M132.45 187.2h-2v-59.46h2z" stroke="#6db1ff" stroke-width=".05" fill="#6db1ff"/><path d="M132.45 127.77h-2v-1.03h2z" fill="#6db1ff"/><path d="M132.47 127.8h-2.05v-1.08h2.05zm-2-1.03v.97h1.95v-.97z" stroke="#6db1ff" stroke-width=".05" fill="#6db1ff"/><path d="M131.45 202.48l-4.64-14.27h9.28z" fill="#6db1ff"/><path d="M131.45 205.7l-6-18.5h12zm-3.26-16.5l3.25 10.04 3.26-10.03z" stroke="#6db1ff" stroke-width=".05" fill="#6db1ff"/><use xlink:href="#l" transform="matrix(1,0,0,1,131.44810859827416,155.42595626911535) translate(0 14.4)"/><path d="M45.1 94.34l1.2.3 1.17.47 1.07.67.95.8.8.97.67 1.07.48 1.17.3 1.22.1 1.2v127.97l.06.98.23.9.36.88.48.8.62.72.7.6.8.5.88.36.92.23.98.08h16.3v2H57.8l-1.22-.08-1.22-.3-1.16-.48-1.07-.65-.95-.83-.82-.95-.65-1.07-.48-1.16-.3-1.24-.08-1.2V102.27l-.08-.98-.22-.9-.36-.88-.5-.8-.6-.72-.72-.6-.8-.5-.87-.36-.93-.22-.97-.08h-96.6v-2H43.9z" stroke="#6db1ff" stroke-width=".05" fill="#6db1ff"/><path d="M75.18 238.2h-1.03v-2h1.03z" fill="#6db1ff"/><path d="M75.2 238.24h-1.07v-2.05h1.07zm-1.02-2v1.95h.97v-1.96z" stroke="#6db1ff" stroke-width=".05" fill="#6db1ff"/><path d="M-53.8 99.88l-14.26-4.64 14.27-4.63z" fill="#6db1ff"/><path d="M-52.8 101.25l-18.5-6 18.5-6.02zm-12.02-6l10.03 3.25v-6.52z" stroke="#6db1ff" stroke-width=".05" fill="#6db1ff"/><use xlink:href="#l" transform="matrix(1,0,0,1,50.836457050697774,106.53322557216926) translate(0 14.4)"/><path d="M-197.6 96.24h-101.5v-2h101.5z" stroke="#6db1ff" stroke-width=".05" fill="#6db1ff"/><path d="M-196.6 96.24h-1v-2h1z" fill="#6db1ff"/><path d="M-196.56 96.27h-1.08v-2.05h1.08zm-1.03-2v1.95h1v-1.95z" stroke="#6db1ff" stroke-width=".05" fill="#6db1ff"/><path d="M-300.1 99.88l-14.28-4.64 14.27-4.63z" fill="#6db1ff"/><path d="M-299.1 101.25l-18.52-6 18.5-6.02zm-12.04-6l10.03 3.25v-6.52z" stroke="#6db1ff" stroke-width=".05" fill="#6db1ff"/><use xlink:href="#l" transform="matrix(1,0,0,1,-257.1017849227005,84.4403008551504) translate(0 14.4)"/><path d="M-120.85 167.8l.08.98.22.92.36.87.5.8.6.7.73.63.8.5.87.35.92.22.97.07h69.88l1.2.1 1.23.3 1.17.47 1.07.67.96.8.8.97.67 1.07.48 1.17.3 1.22.1 1.2v5.4h-2v-5.32l-.1-.97-.2-.9-.37-.88-.5-.8-.6-.72-.7-.6-.82-.5-.87-.36-.92-.22-.98-.08h-69.88l-1.22-.1-1.22-.28-1.16-.5-1.07-.64-.95-.82-.82-.95-.66-1.07-.48-1.16-.3-1.22-.1-1.22v-40.14h2z" stroke="#6db1ff" stroke-width=".05" fill="#6db1ff"/><path d="M-120.85 127.77h-2v-1.03h2z" fill="#6db1ff"/><path d="M-120.82 127.8h-2.05v-1.08h2.05zm-2-1.03v.97h1.95v-.97z" stroke="#6db1ff" stroke-width=".05" fill="#6db1ff"/><path d="M-37.96 202.48l-4.63-14.27h9.28z" fill="#6db1ff"/><path d="M-37.96 205.7l-6-18.5h12zm-3.26-16.5l3.26 10.04 3.26-10.03z" stroke="#6db1ff" stroke-width=".05" fill="#6db1ff"/><use xlink:href="#l" transform="matrix(1,0,0,1,-88.52028109765362,164.04370380646358) translate(0 14.4)"/><path d="M-88.27 238.2h-78.12v-2h78.13z" stroke="#6db1ff" stroke-width=".05" fill="#6db1ff"/><path d="M-160.5 244.85l-12.9-7.64 12.9-7.62z" fill="#6db1ff"/><path d="M-159.5 246.6l-15.88-9.4 15.88-9.38zm-11.95-9.4l9.95 5.9v-11.77z" stroke="#6db1ff" stroke-width=".05" fill="#6db1ff"/><path d="M-87.27 238.2h-1.03v-2h1.03z" fill="#6db1ff"/><path d="M-87.25 238.24h-1.07v-2.05h1.07zm-1.02-2v1.95h.97v-1.96z" stroke="#6db1ff" stroke-width=".05" fill="#6db1ff"/><use xlink:href="#l" transform="matrix(1,0,0,1,-131.3249922938046,226.4116077482236) translate(0 14.4)"/><path d="M-338.56 183.46l.07.97.24.92.36.87.5.8.6.72.7.6.82.5.86.36.92.22.98.08h41.75l1.2.1 1.23.28 1.16.5 1.07.64.95.82.8.95.67 1.06.48 1.16.3 1.22.1 1.22v32.7l.06 1 .22.9.36.87.5.8.6.72.72.6.8.5.87.36.92.23.98.08h13.58v2h-13.65l-1.22-.08-1.22-.3-1.15-.48-1.07-.65-.95-.83-.82-.95-.64-1.07-.5-1.16-.28-1.24-.1-1.2v-32.72l-.07-.98-.2-.92-.37-.87-.5-.8-.6-.7-.72-.63-.8-.5-.86-.35-.92-.23-.97-.07h-41.75l-1.2-.1-1.24-.3-1.15-.47-1.07-.66-.95-.8-.82-.97-.65-1.07-.47-1.16-.3-1.22-.1-1.2v-38.3h2z" stroke="#6db1ff" stroke-width=".05" fill="#6db1ff"/><path d="M-262.2 238.2h-1.02v-2h1.03z" fill="#6db1ff"/><path d="M-262.17 238.24h-1.07v-2.05h1.07zm-1.02-2v1.95h.98v-1.96z" stroke="#6db1ff" stroke-width=".05" fill="#6db1ff"/><path d="M-334.93 144.24h-9.27l4.64-14.26z" fill="#6db1ff"/><path d="M-333.55 145.24h-12.02l6-18.5zm-9.27-2h6.52l-3.26-10.03z" stroke="#6db1ff" stroke-width=".05" fill="#6db1ff"/><use xlink:href="#l" transform="matrix(1,0,0,1,-309.39685289377735,179.69642663408234) translate(0 14.4)"/><path d="M-373.5 187.2h-2v-59.46h2z" stroke="#6db1ff" stroke-width=".05" fill="#6db1ff"/><path d="M-373.5 127.77h-2v-1.03h2z" fill="#6db1ff"/><path d="M-373.48 127.8h-2.04v-1.08h2.04zm-2-1.03v.97h1.96v-.97z" stroke="#6db1ff" stroke-width=".05" fill="#6db1ff"/><path d="M-374.5 202.48l-4.64-14.27h9.27z" fill="#6db1ff"/><path d="M-374.5 205.7l-6-18.5h12zm-3.26-16.5l3.26 10.04 3.26-10.03z" stroke="#6db1ff" stroke-width=".05" fill="#6db1ff"/><use xlink:href="#l" transform="matrix(1,0,0,1,-374.500486971664,155.42596354573445) translate(0 14.4)"/><path d="M-297.72 6.8l.08.97.22.92.36.86.5.8.6.7.72.62.8.5.87.36.92.22.97.07h48.13l1.2.1 1.24.3 1.15.47 1.07.66.95.8.82.97.64 1.07.48 1.16.3 1.22.1 1.2v53l.07 1 .2.9.37.88.5.8.6.7.72.63.8.48.86.36.9.22 1 .07h14.45v2h-14.53l-1.2-.1-1.23-.3-1.16-.47-1.07-.65-.95-.8-.8-.96-.67-1.07-.48-1.16-.3-1.22-.1-1.2v-53l-.06-.98-.22-.92-.36-.87-.5-.8-.6-.7-.72-.62-.8-.5-.87-.35-.92-.22-.98-.07h-48.13l-1.2-.1-1.23-.3-1.15-.47-1.07-.65-.95-.8-.82-.96-.65-1.07-.48-1.16-.3-1.2-.1-1.23v-13.1h2z" stroke="#6db1ff" stroke-width=".05" fill="#6db1ff"/><path d="M-291.08-.36h-15.27l7.63-12.9z" fill="#6db1ff"/><path d="M-289.33.64h-18.78l9.38-15.87zm-15.27-2h11.77l-5.9-9.94z" stroke="#6db1ff" stroke-width=".05" fill="#6db1ff"/><path d="M-199.82 80.83l-14.27 4.64V76.2z" fill="#6db1ff"/><path d="M-196.6 80.83l-18.5 6.02V74.81zm-16.5 3.26l10.04-3.27-10.03-3.26z" stroke="#6db1ff" stroke-width=".05" fill="#6db1ff"/><use xlink:href="#l" transform="matrix(1,0,0,1,-236.58754209678744,10.936620583370551) translate(0 14.4)"/><path d="M-218.78 196.72v-14.88a7 7 0 0 1 7-7h49.27a7 7 0 0 0 7-7v-32.1" stroke="#6db1ff" stroke-width="2" fill="none"/><path d="M-218.78 203.75l-7.64-12.9h15.27zM-155.5 128.7l7.62 12.92h-15.27z" stroke="#6db1ff" stroke-width="2" fill="#6db1ff"/><path d="M-395.4-14.23v30.47a7 7 0 0 0 7 7h5.08a7 7 0 0 1 7 7v24.5" stroke="#6db1ff" stroke-width="2" fill="none"/><path d="M-394.4-14.2h-2v-1.03h2z" stroke="#6db1ff" stroke-width=".05" fill="#6db1ff"/><path d="M-376.32 61.78l-7.64-12.9 15.27-.02z" stroke="#6db1ff" stroke-width="2" fill="#6db1ff"/><defs><path fill="#5f6572" d="M30-248c118-7 216 8 213 122C240-48 200 0 122 0H30v-248zM63-27c89 8 146-16 146-99s-60-101-146-95v194" id="m"/><path fill="#5f6572" d="M100-194c63 0 86 42 84 106H49c0 40 14 67 53 68 26 1 43-12 49-29l28 8c-11 28-37 45-77 45C44 4 14-33 15-96c1-61 26-98 85-98zm52 81c6-60-76-77-97-28-3 7-6 17-6 28h103" id="n"/><path fill="#5f6572" d="M115-194c55 1 70 41 70 98S169 2 115 4C84 4 66-9 55-30l1 105H24l-1-265h31l2 30c10-21 28-34 59-34zm-8 174c40 0 45-34 45-75s-6-73-45-74c-42 0-51 32-51 76 0 43 10 73 51 73" id="o"/><path fill="#5f6572" d="M117-194c89-4 53 116 60 194h-32v-121c0-31-8-49-39-48C34-167 62-67 57 0H25l-1-190h30c1 10-1 24 2 32 11-22 29-35 61-36" id="p"/><path fill="#5f6572" d="M85-194c31 0 48 13 60 33l-1-100h32l1 261h-30c-2-10 0-23-3-31C134-8 116 4 85 4 32 4 16-35 15-94c0-66 23-100 70-100zm9 24c-40 0-46 34-46 75 0 40 6 74 45 74 42 0 51-32 51-76 0-42-9-74-50-73" id="q"/><path fill="#5f6572" d="M96-169c-40 0-48 33-48 73s9 75 48 75c24 0 41-14 43-38l32 2c-6 37-31 61-74 61-59 0-76-41-82-99-10-93 101-131 147-64 4 7 5 14 7 22l-32 3c-4-21-16-35-41-35" id="r"/><path fill="#5f6572" d="M179-190L93 31C79 59 56 82 12 73V49c39 6 53-20 64-50L1-190h34L92-34l54-156h33" id="s"/><g id="a"><use transform="matrix(0.06111111111111111,0,0,0.06111111111111111,0,0)" xlink:href="#m"/><use transform="matrix(0.06111111111111111,0,0,0.06111111111111111,15.827777777777778,0)" xlink:href="#n"/><use transform="matrix(0.06111111111111111,0,0,0.06111111111111111,28.049999999999997,0)" xlink:href="#o"/><use transform="matrix(0.06111111111111111,0,0,0.06111111111111111,40.27222222222222,0)" xlink:href="#n"/><use transform="matrix(0.06111111111111111,0,0,0.06111111111111111,52.49444444444444,0)" xlink:href="#p"/><use transform="matrix(0.06111111111111111,0,0,0.06111111111111111,64.71666666666667,0)" xlink:href="#q"/><use transform="matrix(0.06111111111111111,0,0,0.06111111111111111,76.9388888888889,0)" xlink:href="#n"/><use transform="matrix(0.06111111111111111,0,0,0.06111111111111111,89.16111111111113,0)" xlink:href="#p"/><use transform="matrix(0.06111111111111111,0,0,0.06111111111111111,101.38333333333335,0)" xlink:href="#r"/><use transform="matrix(0.06111111111111111,0,0,0.06111111111111111,112.38333333333335,0)" xlink:href="#s"/></g><path fill="#5f6572" d="M30 0v-248h187v28H63v79h144v27H63v87h162V0H30" id="t"/><path fill="#5f6572" d="M84 4C-5 8 30-112 23-190h32v120c0 31 7 50 39 49 72-2 45-101 50-169h31l1 190h-30c-1-10 1-25-2-33-11 22-28 36-60 37" id="u"/><path fill="#5f6572" d="M210-169c-67 3-38 105-44 169h-31v-121c0-29-5-50-35-48C34-165 62-65 56 0H25l-1-190h30c1 10-1 24 2 32 10-44 99-50 107 0 11-21 27-35 58-36 85-2 47 119 55 194h-31v-121c0-29-5-49-35-48" id="v"/><path fill="#5f6572" d="M137 0h-34L2-248h35l83 218 83-218h36" id="w"/><path fill="#5f6572" d="M141-36C126-15 110 5 73 4 37 3 15-17 15-53c-1-64 63-63 125-63 3-35-9-54-41-54-24 1-41 7-42 31l-33-3c5-37 33-52 76-52 45 0 72 20 72 64v82c-1 20 7 32 28 27v20c-31 9-61-2-59-35zM48-53c0 20 12 33 32 33 41-3 63-29 60-74-43 2-92-5-92 41" id="x"/><path fill="#5f6572" d="M24 0v-261h32V0H24" id="y"/><g id="b"><use transform="matrix(0.06111111111111111,0,0,0.06111111111111111,0,0)" xlink:href="#t"/><use transform="matrix(0.06111111111111111,0,0,0.06111111111111111,14.666666666666666,0)" xlink:href="#p"/><use transform="matrix(0.06111111111111111,0,0,0.06111111111111111,26.888888888888886,0)" xlink:href="#u"/><use transform="matrix(0.06111111111111111,0,0,0.06111111111111111,39.11111111111111,0)" xlink:href="#v"/><use transform="matrix(0.06111111111111111,0,0,0.06111111111111111,57.383333333333326,0)" xlink:href="#w"/><use transform="matrix(0.06111111111111111,0,0,0.06111111111111111,70.39999999999999,0)" xlink:href="#x"/><use transform="matrix(0.06111111111111111,0,0,0.06111111111111111,82.6222222222222,0)" xlink:href="#y"/><use transform="matrix(0.06111111111111111,0,0,0.06111111111111111,87.44999999999999,0)" xlink:href="#u"/><use transform="matrix(0.06111111111111111,0,0,0.06111111111111111,99.67222222222222,0)" xlink:href="#n"/></g><path fill="#5f6572" d="M141 0L90-78 38 0H4l68-98-65-92h35l48 74 47-74h35l-64 92 68 98h-35" id="z"/><path fill="#5f6572" d="M59-47c-2 24 18 29 38 22v24C64 9 27 4 27-40v-127H5v-23h24l9-43h21v43h35v23H59v120" id="A"/><path fill="#5f6572" d="M135-143c-3-34-86-38-87 0 15 53 115 12 119 90S17 21 10-45l28-5c4 36 97 45 98 0-10-56-113-15-118-90-4-57 82-63 122-42 12 7 21 19 24 35" id="B"/><path fill="#5f6572" d="M24-231v-30h32v30H24zM24 0v-190h32V0H24" id="C"/><path fill="#5f6572" d="M100-194c62-1 85 37 85 99 1 63-27 99-86 99S16-35 15-95c0-66 28-99 85-99zM99-20c44 1 53-31 53-75 0-43-8-75-51-75s-53 32-53 75 10 74 51 75" id="D"/><g id="c"><use transform="matrix(0.06111111111111111,0,0,0.06111111111111111,0,0)" xlink:href="#t"/><use transform="matrix(0.06111111111111111,0,0,0.06111111111111111,14.666666666666666,0)" xlink:href="#z"/><use transform="matrix(0.06111111111111111,0,0,0.06111111111111111,25.666666666666664,0)" xlink:href="#A"/><use transform="matrix(0.06111111111111111,0,0,0.06111111111111111,31.777777777777775,0)" xlink:href="#n"/><use transform="matrix(0.06111111111111111,0,0,0.06111111111111111,44,0)" xlink:href="#p"/><use transform="matrix(0.06111111111111111,0,0,0.06111111111111111,56.22222222222222,0)" xlink:href="#B"/><use transform="matrix(0.06111111111111111,0,0,0.06111111111111111,67.22222222222223,0)" xlink:href="#C"/><use transform="matrix(0.06111111111111111,0,0,0.06111111111111111,72.05000000000001,0)" xlink:href="#D"/><use transform="matrix(0.06111111111111111,0,0,0.06111111111111111,84.27222222222224,0)" xlink:href="#p"/></g><path fill="#5f6572" d="M240 0l2-218c-23 76-54 145-80 218h-23L58-218 59 0H30v-248h44l77 211c21-75 51-140 76-211h43V0h-30" id="E"/><path fill="#5f6572" d="M177-190C167-65 218 103 67 71c-23-6-38-20-44-43l32-5c15 47 100 32 89-28v-30C133-14 115 1 83 1 29 1 15-40 15-95c0-56 16-97 71-98 29-1 48 16 59 35 1-10 0-23 2-32h30zM94-22c36 0 50-32 50-73 0-42-14-75-50-75-39 0-46 34-46 75s6 73 46 73" id="F"/><g id="d"><use transform="matrix(0.06111111111111111,0,0,0.06111111111111111,0,0)" xlink:href="#E"/><use transform="matrix(0.06111111111111111,0,0,0.06111111111111111,18.272222222222222,0)" xlink:href="#n"/><use transform="matrix(0.06111111111111111,0,0,0.06111111111111111,30.494444444444444,0)" xlink:href="#B"/><use transform="matrix(0.06111111111111111,0,0,0.06111111111111111,41.49444444444444,0)" xlink:href="#B"/><use transform="matrix(0.06111111111111111,0,0,0.06111111111111111,52.49444444444444,0)" xlink:href="#x"/><use transform="matrix(0.06111111111111111,0,0,0.06111111111111111,64.71666666666667,0)" xlink:href="#F"/><use transform="matrix(0.06111111111111111,0,0,0.06111111111111111,76.9388888888889,0)" xlink:href="#n"/></g><path fill="#5f6572" d="M30-248c87 1 191-15 191 75 0 78-77 80-158 76V0H30v-248zm33 125c57 0 124 11 124-50 0-59-68-47-124-48v98" id="G"/><path fill="#5f6572" d="M143 0L79-87 56-68V0H24v-261h32v163l83-92h37l-77 82L181 0h-38" id="H"/><g id="e"><use transform="matrix(0.06111111111111111,0,0,0.06111111111111111,0,0)" xlink:href="#G"/><use transform="matrix(0.06111111111111111,0,0,0.06111111111111111,14.666666666666666,0)" xlink:href="#x"/><use transform="matrix(0.06111111111111111,0,0,0.06111111111111111,26.888888888888886,0)" xlink:href="#r"/><use transform="matrix(0.06111111111111111,0,0,0.06111111111111111,37.888888888888886,0)" xlink:href="#H"/><use transform="matrix(0.06111111111111111,0,0,0.06111111111111111,48.888888888888886,0)" xlink:href="#x"/><use transform="matrix(0.06111111111111111,0,0,0.06111111111111111,61.11111111111111,0)" xlink:href="#F"/><use transform="matrix(0.06111111111111111,0,0,0.06111111111111111,73.33333333333333,0)" xlink:href="#n"/></g><path fill="#5f6572" d="M106-169C34-169 62-67 57 0H25v-261h32l-1 103c12-21 28-36 61-36 89 0 53 116 60 194h-32v-121c2-32-8-49-39-48" id="I"/><g id="f"><use transform="matrix(0.06111111111111111,0,0,0.06111111111111111,0,0)" xlink:href="#E"/><use transform="matrix(0.06111111111111111,0,0,0.06111111111111111,18.272222222222222,0)" xlink:href="#n"/><use transform="matrix(0.06111111111111111,0,0,0.06111111111111111,30.494444444444444,0)" xlink:href="#A"/><use transform="matrix(0.06111111111111111,0,0,0.06111111111111111,36.605555555555554,0)" xlink:href="#I"/><use transform="matrix(0.06111111111111111,0,0,0.06111111111111111,48.827777777777776,0)" xlink:href="#D"/><use transform="matrix(0.06111111111111111,0,0,0.06111111111111111,61.05,0)" xlink:href="#q"/></g><path fill="#5f6572" d="M185-189c-5-48-123-54-124 2 14 75 158 14 163 119 3 78-121 87-175 55-17-10-28-26-33-46l33-7c5 56 141 63 141-1 0-78-155-14-162-118-5-82 145-84 179-34 5 7 8 16 11 25" id="J"/><path fill="#5f6572" d="M114-163C36-179 61-72 57 0H25l-1-190h30c1 12-1 29 2 39 6-27 23-49 58-41v29" id="K"/><path fill="#5f6572" d="M108 0H70L1-190h34L89-25l56-165h34" id="L"/><g id="g"><use transform="matrix(0.06111111111111111,0,0,0.06111111111111111,0,0)" xlink:href="#J"/><use transform="matrix(0.06111111111111111,0,0,0.06111111111111111,14.666666666666666,0)" xlink:href="#n"/><use transform="matrix(0.06111111111111111,0,0,0.06111111111111111,26.888888888888886,0)" xlink:href="#K"/><use transform="matrix(0.06111111111111111,0,0,0.06111111111111111,34.16111111111111,0)" xlink:href="#L"/><use transform="matrix(0.06111111111111111,0,0,0.06111111111111111,45.16111111111111,0)" xlink:href="#C"/><use transform="matrix(0.06111111111111111,0,0,0.06111111111111111,49.98888888888889,0)" xlink:href="#r"/><use transform="matrix(0.06111111111111111,0,0,0.06111111111111111,60.98888888888889,0)" xlink:href="#n"/></g><path fill="#5f6572" d="M140-251c81 0 123 46 123 126C263-46 219 4 140 4 59 4 17-45 17-125s42-126 123-126zm0 227c63 0 89-41 89-101s-29-99-89-99c-61 0-89 39-89 99S79-25 140-24" id="M"/><path fill="#5f6572" d="M101-234c-31-9-42 10-38 44h38v23H63V0H32v-167H5v-23h27c-7-52 17-82 69-68v24" id="N"/><g id="h"><use transform="matrix(0.06111111111111111,0,0,0.06111111111111111,0,0)" xlink:href="#M"/><use transform="matrix(0.06111111111111111,0,0,0.06111111111111111,17.11111111111111,0)" xlink:href="#p"/><use transform="matrix(0.06111111111111111,0,0,0.06111111111111111,29.333333333333332,0)" xlink:href="#n"/><use transform="matrix(0.06111111111111111,0,0,0.06111111111111111,41.55555555555556,0)" xlink:href="#D"/><use transform="matrix(0.06111111111111111,0,0,0.06111111111111111,53.77777777777778,0)" xlink:href="#N"/></g><g id="i"><use transform="matrix(0.06111111111111111,0,0,0.06111111111111111,0,0)" xlink:href="#t"/><use transform="matrix(0.06111111111111111,0,0,0.06111111111111111,14.666666666666666,0)" xlink:href="#p"/><use transform="matrix(0.06111111111111111,0,0,0.06111111111111111,26.888888888888886,0)" xlink:href="#u"/><use transform="matrix(0.06111111111111111,0,0,0.06111111111111111,39.11111111111111,0)" xlink:href="#v"/></g><path fill="#5f6572" d="M63-220v92h138v28H63V0H30v-248h175v28H63" id="O"/><g id="j"><use transform="matrix(0.06111111111111111,0,0,0.06111111111111111,0,0)" xlink:href="#O"/><use transform="matrix(0.06111111111111111,0,0,0.06111111111111111,13.383333333333333,0)" xlink:href="#C"/><use transform="matrix(0.06111111111111111,0,0,0.06111111111111111,18.21111111111111,0)" xlink:href="#n"/><use transform="matrix(0.06111111111111111,0,0,0.06111111111111111,30.43333333333333,0)" xlink:href="#y"/><use transform="matrix(0.06111111111111111,0,0,0.06111111111111111,35.261111111111106,0)" xlink:href="#q"/></g><g id="k"><use transform="matrix(0.06111111111111111,0,0,0.06111111111111111,0,0)" xlink:href="#O"/><use transform="matrix(0.06111111111111111,0,0,0.06111111111111111,13.383333333333333,0)" xlink:href="#C"/><use transform="matrix(0.06111111111111111,0,0,0.06111111111111111,18.21111111111111,0)" xlink:href="#y"/><use transform="matrix(0.06111111111111111,0,0,0.06111111111111111,23.038888888888884,0)" xlink:href="#n"/></g></defs></g></svg>